<svg version="1.1" id="Layer_1" xmlns="http://www.w3.org/2000/svg" xmlns:xlink="http://www.w3.org/1999/xlink" x="0px" y="0px"
	 width="100%" viewBox="0 0 158 53" enable-background="new 0 0 158 53" xml:space="preserve">
<path fill="#172F17" opacity="1.000000" stroke="none" 
	d="
M121.000000,54.000000 
	C108.312439,54.000000 95.624878,54.000000 82.556007,53.648376 
	C83.738190,52.547832 85.229820,51.493595 86.878265,51.105667 
	C92.438530,49.797169 96.845970,43.702583 96.432358,38.087715 
	C98.826927,38.013969 100.794167,38.013969 103.297958,38.013969 
	C102.790695,36.377354 102.425819,35.200111 102.420578,33.991936 
	C104.504761,34.998730 106.229294,36.036465 107.971458,37.039429 
	C107.989082,37.004665 107.924225,37.047916 108.052094,37.353859 
	C109.120399,38.048851 110.060829,38.437904 111.401848,38.907852 
	C114.062302,38.382881 116.322182,37.777023 118.673470,37.636356 
	C119.509926,43.401035 120.254959,48.700516 121.000000,54.000000 
z"/>
<path fill="#183718" opacity="1.000000" stroke="none" 
	d="
M96.005020,38.161461 
	C96.845970,43.702583 92.438530,49.797169 86.878265,51.105667 
	C85.229820,51.493595 83.738190,52.547832 82.087349,53.648376 
	C75.312355,54.000000 68.624710,54.000000 61.636143,53.705856 
	C65.434937,50.405090 69.158905,46.081161 73.743233,44.773560 
	C78.066109,43.540531 79.997467,41.642788 81.542068,37.943123 
	C82.918449,37.963287 83.919540,37.964924 85.273361,38.125237 
	C87.767471,38.146191 89.908852,38.008476 92.443504,37.930561 
	C93.892860,38.047398 94.948936,38.104427 96.005020,38.161461 
z"/>
<path fill="#0A381F" opacity="1.000000" stroke="none" 
	d="
M1.000000,28.000000 
	C1.000000,24.307091 1.000000,20.614182 1.382094,16.449198 
	C8.134625,12.502172 14.531202,9.073167 20.837368,5.485252 
	C21.510178,5.102454 21.654829,3.791361 22.451290,2.921637 
	C24.214725,2.941052 25.571369,2.949738 27.186184,3.216459 
	C26.815325,5.629204 26.771154,8.302548 25.424631,9.821007 
	C23.226713,12.299572 20.179552,14.025051 17.497799,16.062868 
	C18.338358,17.453518 19.146334,18.790257 19.534637,20.069654 
	C14.803773,19.752285 10.920370,20.078941 10.989881,26.168087 
	C7.624985,26.958368 4.312492,27.479183 1.000000,28.000000 
z"/>
<path fill="#0A3F20" opacity="1.000000" stroke="none" 
	d="
M19.954308,20.126997 
	C19.146334,18.790257 18.338358,17.453518 17.497799,16.062868 
	C20.179552,14.025051 23.226713,12.299572 25.424631,9.821007 
	C26.771154,8.302548 26.815325,5.629204 27.213680,2.891148 
	C26.988668,1.871867 26.994333,1.435934 27.000000,1.000000 
	C27.750000,1.000000 28.500000,1.000000 29.884129,1.266793 
	C32.010136,1.698186 33.502018,1.862785 35.458969,2.015249 
	C40.289684,1.988984 44.655327,1.974856 49.008423,1.988980 
	C48.995872,2.017232 48.966385,2.071577 48.918186,2.416278 
	C42.844353,6.170184 36.995201,9.964515 30.724192,12.838270 
	C27.192350,14.456772 27.164116,15.600452 29.525976,17.991692 
	C30.074371,18.546907 30.511276,19.212246 30.577179,19.901375 
	C27.959896,20.233702 25.764915,20.491568 23.353682,20.737873 
	C23.137430,20.726315 22.910021,21.094931 22.571030,21.078011 
	C21.472794,20.749727 20.713551,20.438362 19.954308,20.126997 
z"/>
<path fill="#1E2B16" opacity="1.000000" stroke="none" 
	d="
M121.464645,54.000000 
	C120.254959,48.700516 119.509926,43.401035 118.856331,37.351631 
	C120.391685,33.697441 121.835594,30.793173 123.429787,27.586620 
	C124.541382,31.737835 125.489700,35.279274 126.456490,38.889694 
	C128.000793,38.889694 129.478882,38.889694 130.967712,39.315273 
	C132.319000,44.493900 133.659500,49.246948 135.000000,54.000000 
	C130.643097,54.000000 126.286201,54.000000 121.464645,54.000000 
z"/>
<path fill="#1F3E18" opacity="1.000000" stroke="none" 
	d="
M81.166771,37.924587 
	C79.997467,41.642788 78.066109,43.540531 73.743233,44.773560 
	C69.158905,46.081161 65.434937,50.405090 61.167610,53.705856 
	C61.000000,54.000000 60.500000,54.000000 60.028389,53.758572 
	C56.303680,52.386932 56.857094,50.790535 59.320763,48.933769 
	C61.127605,45.564117 62.617123,42.259747 64.506531,38.977077 
	C69.716293,39.346062 68.555519,35.657425 69.242126,33.003296 
	C70.034416,32.743000 70.533066,32.498459 71.317955,32.513733 
	C71.736038,34.379482 71.867882,35.985416 71.996475,37.551834 
	C77.213791,39.835258 75.390144,34.608925 77.355011,33.022915 
	C78.529564,33.023663 79.312561,33.030582 80.059723,33.407005 
	C80.404846,35.159203 80.785805,36.541893 81.166771,37.924587 
z"/>
<path fill="#083321" opacity="1.000000" stroke="none" 
	d="
M22.044495,2.910907 
	C21.654829,3.791361 21.510178,5.102454 20.837368,5.485252 
	C14.531202,9.073167 8.134625,12.502172 1.382094,15.988562 
	C1.000000,11.643101 1.000000,7.286201 1.468492,2.471644 
	C8.622803,2.010484 15.308622,2.006981 22.009369,2.230202 
	C22.024298,2.456926 22.044495,2.910907 22.044495,2.910907 
z"/>
<path fill="#272C17" opacity="1.000000" stroke="none" 
	d="
M159.000000,29.000000 
	C159.000000,32.692909 159.000000,36.385818 158.540497,40.539352 
	C153.720901,40.667698 149.360825,40.335423 144.788666,39.767723 
	C143.701920,38.981171 142.827271,38.430046 141.974991,37.507439 
	C142.391464,35.755833 142.785553,34.375710 143.520203,32.900429 
	C148.907181,31.536846 153.953598,30.268423 159.000000,29.000000 
z"/>
<path fill="#0F3D1A" opacity="1.000000" stroke="none" 
	d="
M1.000000,28.460636 
	C4.312492,27.479183 7.624985,26.958368 11.305038,26.337831 
	C13.098656,27.644918 14.620949,28.969299 15.919472,30.485342 
	C16.908518,31.640066 17.613569,33.038036 18.349850,34.180229 
	C15.050643,36.283516 11.600050,30.159735 9.509678,36.087746 
	C6.453720,37.450352 3.726860,38.725178 1.000001,40.000000 
	C1.000000,36.307091 1.000000,32.614182 1.000000,28.460636 
z"/>
<path fill="#134516" opacity="1.000000" stroke="none" 
	d="
M1.000001,40.460640 
	C3.726860,38.725178 6.453720,37.450352 9.675404,36.429337 
	C12.990332,40.209152 16.483908,39.244732 19.997520,38.512325 
	C20.002480,39.578876 20.005926,40.289917 20.005226,41.000618 
	C20.001080,41.000286 20.001036,41.009418 19.602421,41.007294 
	C17.264109,41.708424 15.111047,42.083656 13.426594,43.179317 
	C9.172002,45.946754 5.128237,49.038311 1.000000,52.000000 
	C1.000000,48.307091 1.000000,44.614182 1.000001,40.460640 
z"/>
<path fill="#2C2416" opacity="1.000000" stroke="none" 
	d="
M145.000732,40.003143 
	C149.360825,40.335423 153.720901,40.667698 158.540497,40.999989 
	C159.000000,45.216461 159.000000,49.432926 159.000000,54.000000 
	C157.346664,54.000000 155.672806,54.000000 153.423187,53.654297 
	C152.057175,51.552052 151.448685,49.681221 150.433228,48.066299 
	C148.982819,45.759697 148.193451,42.109287 144.012512,43.660374 
	C144.006516,42.885689 144.003571,42.442913 144.115479,41.745419 
	C144.487137,40.994846 144.743927,40.498997 145.000732,40.003143 
z"/>
<path fill="#213619" opacity="1.000000" stroke="none" 
	d="
M159.000000,28.545891 
	C153.953598,30.268423 148.907181,31.536846 143.458405,32.517220 
	C144.091782,29.485291 145.127533,26.741405 146.496857,23.985840 
	C147.555862,23.318523 148.281311,22.662893 149.374237,21.953201 
	C152.827805,20.932758 155.913910,19.966379 159.000000,19.000000 
	C159.000000,22.030594 159.000000,25.061186 159.000000,28.545891 
z"/>
<path fill="#292815" opacity="1.000000" stroke="none" 
	d="
M135.437500,54.000000 
	C133.659500,49.246948 132.319000,44.493900 130.993652,38.947529 
	C131.770538,36.270493 132.532288,34.386780 133.605682,31.732344 
	C134.680649,34.355705 135.496323,36.346310 136.255585,38.820156 
	C138.132782,44.202267 140.066391,49.101131 142.000000,54.000000 
	C139.958328,54.000000 137.916672,54.000000 135.437500,54.000000 
z"/>
<path fill="#314618" opacity="1.000000" stroke="none" 
	d="
M59.003441,48.999043 
	C56.857094,50.790535 56.303680,52.386932 59.778389,53.758572 
	C56.969406,54.000000 53.938812,54.000000 50.446529,53.584229 
	C50.306602,51.212807 50.429401,49.197117 50.997124,47.315678 
	C51.832542,44.547112 52.985374,41.874321 54.294464,39.039558 
	C55.375744,38.240417 56.165558,37.562447 57.118050,37.257469 
	C57.854965,41.419991 58.429203,45.209515 59.003441,48.999043 
z"/>
<path fill="#164F15" opacity="1.000000" stroke="none" 
	d="
M1.000000,52.500000 
	C5.128237,49.038311 9.172002,45.946754 13.426594,43.179317 
	C15.111047,42.083656 17.264109,41.708424 19.554787,41.348770 
	C16.937178,45.794914 13.968589,49.897457 11.000000,54.000000 
	C7.666667,53.666668 4.333333,53.333336 1.000000,52.500000 
z"/>
<path fill="#342614" opacity="1.000000" stroke="none" 
	d="
M142.333328,54.000000 
	C140.066391,49.101131 138.132782,44.202267 136.447601,38.966133 
	C137.018387,38.686794 137.268661,38.853016 137.578979,39.351593 
	C137.809341,39.718533 137.907578,39.861420 138.143982,40.317253 
	C139.156097,43.519588 140.737595,45.202442 144.015564,43.992287 
	C148.193451,42.109287 148.982819,45.759697 150.433228,48.066299 
	C151.448685,49.681221 152.057175,51.552052 152.923706,53.654297 
	C151.933334,54.000000 150.866653,54.000000 149.347656,53.659580 
	C147.815613,52.641258 146.735886,51.963356 145.656174,51.285454 
	C145.104111,52.190304 144.552063,53.095150 144.000000,54.000000 
	C143.555557,54.000000 143.111099,54.000000 142.333328,54.000000 
M142.416794,47.688580 
	C143.412003,48.283424 144.407211,48.878269 145.984818,49.821213 
	C145.139038,45.652580 145.139038,45.652580 142.416794,47.688580 
z"/>
<path fill="#264C15" opacity="1.000000" stroke="none" 
	d="
M54.002998,39.160732 
	C52.985374,41.874321 51.832542,44.547112 50.997124,47.315678 
	C50.429401,49.197117 50.306602,51.212807 49.992420,53.584229 
	C47.299988,54.000000 44.599972,54.000000 41.500381,53.652023 
	C42.300472,51.178631 43.508644,49.057961 44.697624,46.926579 
	C46.139267,44.342274 47.564701,41.748932 49.409798,39.085342 
	C51.215961,39.061039 52.609482,39.110886 54.002998,39.160732 
z"/>
<path fill="#145C14" opacity="1.000000" stroke="none" 
	d="
M11.444164,54.000000 
	C13.968589,49.897457 16.937178,45.794914 19.953400,41.350895 
	C20.001036,41.009418 20.001080,41.000286 20.339108,40.952744 
	C21.457348,39.936184 22.237564,38.967167 23.401306,37.996086 
	C24.551332,37.974903 25.317833,37.955784 26.404860,37.965046 
	C27.148775,38.048687 27.572165,38.103947 27.940235,38.491337 
	C26.754667,40.221970 25.502209,41.540234 24.520117,43.036015 
	C22.593605,45.970196 20.817636,49.003223 18.975498,52.329544 
	C18.981085,53.109158 18.990541,53.554581 19.000000,54.000000 
	C16.629442,54.000000 14.258885,54.000000 11.444164,54.000000 
z"/>
<path fill="#156414" opacity="1.000000" stroke="none" 
	d="
M35.000000,54.000000 
	C33.285625,54.000000 31.571249,54.000000 29.494404,53.674450 
	C30.753353,51.561859 32.374771,49.774822 34.295052,47.831749 
	C37.512806,45.137688 40.817154,42.818436 40.329048,37.977745 
	C41.108044,36.465771 41.554058,35.133751 42.334732,33.881538 
	C43.461140,34.929375 44.252884,35.897411 45.024452,37.244774 
	C44.091118,39.491455 43.336044,41.458736 42.231972,43.205418 
	C39.918652,46.865139 37.421600,50.408722 35.000000,54.000000 
z"/>
<path fill="#1B5614" opacity="1.000000" stroke="none" 
	d="
M35.428459,54.000000 
	C37.421600,50.408722 39.918652,46.865139 42.231972,43.205418 
	C43.336044,41.458736 44.091118,39.491455 45.353455,37.411488 
	C46.800812,37.852417 47.898979,38.505955 48.997147,39.159492 
	C47.564701,41.748932 46.139267,44.342274 44.697624,46.926579 
	C43.508644,49.057961 42.300472,51.178631 41.050400,53.652023 
	C39.285641,54.000000 37.571285,54.000000 35.428459,54.000000 
z"/>
<path fill="#185415" opacity="1.000000" stroke="none" 
	d="
M159.000000,3.000000 
	C159.000000,4.714375 159.000000,6.428751 158.658936,8.622223 
	C155.875931,12.074401 153.433990,15.047482 150.618423,18.014816 
	C149.497070,18.007404 148.749329,18.005743 148.002548,17.606182 
	C148.336487,15.140010 148.669464,13.071733 149.361267,10.944003 
	C150.812332,8.242549 151.904572,5.600547 153.310516,2.940169 
	C154.043091,2.915330 154.461960,2.908866 155.293701,2.933687 
	C156.804382,2.976647 157.902191,2.988323 159.000000,3.000000 
z"/>
<path fill="#108010" opacity="1.000000" stroke="none" 
	d="
M33.996189,47.987782 
	C32.374771,49.774822 30.753353,51.561859 29.065968,53.674450 
	C28.250000,54.000000 27.500000,54.000000 26.336126,53.680367 
	C25.270098,52.569138 24.617941,51.777542 23.973267,50.654568 
	C23.988708,49.880974 23.996666,49.438763 24.374226,48.995914 
	C25.986746,48.479549 27.229664,47.963818 28.472584,47.448090 
	C27.972580,46.961098 27.472578,46.474110 27.127514,45.710491 
	C28.170893,44.936348 29.059332,44.438831 30.117287,44.108429 
	C30.862829,43.839699 31.438858,43.403854 32.272827,42.835556 
	C32.685257,41.467484 32.839748,40.231873 33.335121,39.070431 
	C34.239853,40.607803 35.199554,42.056049 35.255573,43.538441 
	C35.310936,45.003601 34.453312,46.503258 33.996189,47.987782 
z"/>
<path fill="#1E4318" opacity="1.000000" stroke="none" 
	d="
M150.992035,18.020561 
	C153.433990,15.047482 155.875931,12.074401 158.658936,9.050659 
	C159.000000,12.030593 159.000000,15.061185 159.000000,18.545889 
	C155.913910,19.966379 152.827805,20.932758 149.367950,21.946388 
	C148.994186,21.993639 148.982834,21.981125 149.048447,21.662209 
	C149.740051,20.235714 150.366043,19.128138 150.992035,18.020561 
z"/>
<path fill="#07533B" opacity="1.000000" stroke="none" 
	d="
M21.994442,2.003478 
	C15.308622,2.006981 8.622803,2.010484 1.468492,2.006993 
	C1.647219,1.666667 2.291226,1.051147 2.942156,1.043736 
	C9.314922,0.971177 15.688843,1.000000 22.404396,1.205548 
	C22.548618,1.675696 22.297979,1.873156 21.994442,2.003478 
z"/>
<path fill="#41972C" opacity="1.000000" stroke="none" 
	d="
M97.000000,1.000000 
	C102.354927,1.000000 107.709862,1.000000 113.301315,1.201373 
	C113.229324,1.669569 112.920815,1.936392 112.478165,2.297873 
	C112.174187,2.543850 112.036522,2.720295 111.701859,2.938141 
	C111.472694,2.954418 111.013779,2.976992 110.589211,2.958605 
	C105.785278,2.629295 101.405922,2.318373 97.014008,1.755744 
	C97.000969,1.336025 97.000481,1.168012 97.000000,1.000000 
z"/>
<path fill="#1C792E" opacity="1.000000" stroke="none" 
	d="
M59.000000,1.000000 
	C65.687645,1.000000 72.375290,1.000000 79.532730,1.251897 
	C80.002510,1.671728 80.002495,1.839662 79.533768,2.019120 
	C72.380089,2.019749 65.695145,2.008853 59.007385,1.748470 
	C59.004570,1.498984 59.000000,1.000000 59.000000,1.000000 
z"/>
<path fill="#37832F" opacity="1.000000" stroke="none" 
	d="
M80.002487,2.007595 
	C80.002495,1.839662 80.002510,1.671728 80.001259,1.251897 
	C84.356903,1.000000 88.713799,1.000000 93.542404,1.317867 
	C94.051521,1.844370 94.088936,2.053005 94.089096,2.440715 
	C94.051857,2.619790 94.015404,2.988336 93.863724,2.996126 
	C93.712044,3.003917 93.408478,2.992648 93.050644,2.918081 
	C92.453247,2.809603 92.213684,2.775693 91.762276,2.559310 
	C91.007393,2.285802 90.464371,2.194768 89.476723,2.083810 
	C86.352524,2.083632 83.672943,2.103377 80.745682,2.093939 
	C80.497993,2.064756 80.002487,2.007595 80.002487,2.007595 
z"/>
<path fill="#117E12" opacity="1.000000" stroke="none" 
	d="
M23.965784,50.985947 
	C24.617941,51.777542 25.270098,52.569138 25.961126,53.680367 
	C23.958334,54.000000 21.916666,54.000000 19.437500,54.000000 
	C18.990541,53.554581 18.981085,53.109158 19.348248,52.329918 
	C21.138508,51.659382 22.552145,51.322666 23.965784,50.985947 
z"/>
<path fill="#29A327" opacity="1.000000" stroke="none" 
	d="
M120.000000,1.000000 
	C124.689255,1.000000 129.378510,1.000000 134.539474,1.222834 
	C135.011185,1.445668 135.038818,1.890618 134.619690,1.925216 
	C132.805771,1.993476 131.410950,2.027138 129.561035,2.042152 
	C126.061028,2.015829 123.016129,2.008152 119.981148,1.750435 
	C119.994041,1.333597 119.997017,1.166798 120.000000,1.000000 
z"/>
<path fill="#382816" opacity="1.000000" stroke="none" 
	d="
M144.416656,54.000000 
	C144.552063,53.095150 145.104111,52.190304 145.656174,51.285454 
	C146.735886,51.963356 147.815613,52.641258 148.947662,53.659580 
	C147.611115,54.000000 146.222214,54.000000 144.416656,54.000000 
z"/>
<path fill="#10673B" opacity="1.000000" stroke="none" 
	d="
M49.020973,1.960727 
	C44.655327,1.974856 40.289684,1.988984 35.458637,1.758248 
	C34.995495,1.342256 34.997749,1.171128 35.000000,1.000000 
	C39.356899,1.000000 43.713799,1.000000 48.538071,1.240237 
	C49.005447,1.480474 49.020973,1.960727 49.020973,1.960727 
z"/>
<path fill="#239722" opacity="1.000000" stroke="none" 
	d="
M154.880814,2.902401 
	C154.461960,2.908866 154.043091,2.915330 152.997681,2.810181 
	C151.274796,2.495191 150.178467,2.291813 149.049805,1.817215 
	C149.011658,1.363997 149.005829,1.181999 149.000000,1.000000 
	C152.333328,1.000000 155.666672,1.000000 158.634857,1.490965 
	C157.140076,2.288753 156.010452,2.595577 154.880814,2.902401 
z"/>
<path fill="#187741" opacity="1.000000" stroke="none" 
	d="
M49.008423,1.988980 
	C49.020973,1.960727 49.005447,1.480474 49.002724,1.240237 
	C52.030594,1.000000 55.061188,1.000000 58.545891,1.000000 
	C59.000000,1.000000 59.004570,1.498984 58.709366,1.880589 
	C56.942886,2.182404 55.471607,2.102612 53.581638,2.010685 
	C51.764091,2.022892 50.365238,2.047234 48.966385,2.071577 
	C48.966385,2.071577 48.995872,2.017232 49.008423,1.988980 
z"/>
<path fill="#15CA1D" opacity="1.000000" stroke="none" 
	d="
M148.583496,1.000000 
	C149.005829,1.181999 149.011658,1.363997 148.996857,1.999603 
	C148.976227,2.453209 148.908829,2.828192 148.586838,2.824539 
	C147.837006,2.855399 147.409164,2.889911 146.635925,2.915067 
	C145.600006,2.939476 144.909500,2.973241 144.192993,2.668798 
	C144.111313,1.887060 144.055664,1.443530 144.000000,1.000000 
	C145.388992,1.000000 146.778000,1.000000 148.583496,1.000000 
z"/>
<path fill="#9B9892" opacity="1.000000" stroke="none" 
	d="
M143.666672,1.000000 
	C144.055664,1.443530 144.111313,1.887060 144.059845,2.975012 
	C143.319046,4.714264 142.685364,5.809093 142.030289,6.511703 
	C141.928802,5.078740 141.848679,4.037998 141.850098,2.670889 
	C141.954407,1.896348 141.977203,1.448174 142.000000,1.000000 
	C142.444443,1.000000 142.888901,1.000000 143.666672,1.000000 
z"/>
<path fill="#0D6140" opacity="1.000000" stroke="none" 
	d="
M22.009369,2.230202 
	C22.297979,1.873156 22.548618,1.675696 22.873180,1.205548 
	C24.066669,1.000000 25.133339,1.000000 26.600002,1.000000 
	C26.994333,1.435934 26.988668,1.871867 26.955507,2.633112 
	C25.571369,2.949738 24.214725,2.941052 22.451290,2.921637 
	C22.044495,2.910907 22.024298,2.456926 22.009369,2.230202 
z"/>
<path fill="#17BF1E" opacity="1.000000" stroke="none" 
	d="
M141.562988,1.000000 
	C141.977203,1.448174 141.954407,1.896348 141.633484,2.537084 
	C140.878418,2.517685 140.421478,2.305724 139.554077,2.066093 
	C137.775345,1.989156 136.407089,1.939887 135.038818,1.890618 
	C135.038818,1.890618 135.011185,1.445668 135.005585,1.222834 
	C137.041992,1.000000 139.083984,1.000000 141.562988,1.000000 
z"/>
<path fill="#4A9C2A" opacity="1.000000" stroke="none" 
	d="
M119.583496,1.000000 
	C119.997017,1.166798 119.994041,1.333597 119.578629,1.765537 
	C117.831352,2.073825 116.496513,2.116971 115.119148,1.870381 
	C115.051086,1.387096 115.025543,1.193548 115.000000,1.000000 
	C116.389000,1.000000 117.777992,1.000000 119.583496,1.000000 
z"/>
<path fill="#0B603B" opacity="1.000000" stroke="none" 
	d="
M34.583336,1.000000 
	C34.997749,1.171128 34.995495,1.342256 34.993568,1.770384 
	C33.502018,1.862785 32.010136,1.698186 30.259129,1.266793 
	C31.388889,1.000000 32.777779,1.000000 34.583336,1.000000 
z"/>
<path fill="#68963E" opacity="1.000000" stroke="none" 
	d="
M114.750000,1.000000 
	C115.025543,1.193548 115.051086,1.387096 115.105316,2.173992 
	C115.175087,3.172504 115.216171,3.577668 114.955330,3.984869 
	C114.452126,3.984327 114.250847,3.981750 114.012939,3.981928 
	C113.976311,3.984682 113.906464,4.007493 113.822739,3.792760 
	C113.553421,3.314973 113.304802,3.143008 113.004196,3.044077 
	C113.015244,3.026021 113.012199,2.983799 112.938126,2.775389 
	C112.864044,2.566979 112.612305,2.203218 112.612305,2.203217 
	C112.920815,1.936392 113.229324,1.669569 113.768921,1.201373 
	C114.000000,1.000000 114.500000,1.000000 114.750000,1.000000 
z"/>
<path fill="#146613" opacity="1.000000" stroke="none" 
	d="
M155.293701,2.933685 
	C156.010452,2.595577 157.140076,2.288753 158.634857,1.990965 
	C159.000000,2.000000 159.000000,2.500000 159.000000,2.750000 
	C157.902191,2.988323 156.804382,2.976647 155.293701,2.933685 
z"/>
<path fill="#528327" opacity="1.000000" stroke="none" 
	d="
M94.126343,2.261642 
	C94.088936,2.053005 94.051521,1.844370 94.007057,1.317867 
	C94.750000,1.000000 95.500000,1.000000 96.625000,1.000000 
	C97.000481,1.168012 97.000969,1.336025 96.776253,1.785551 
	C96.551048,2.067065 96.073952,2.105016 95.745430,2.083743 
	C94.986717,2.128860 94.556534,2.195251 94.126343,2.261642 
z"/>
<path fill="#FBFCFA" opacity="1.000000" stroke="none" 
	d="
M137.446869,39.127533 
	C137.268661,38.853016 137.018387,38.686794 136.504013,38.482891 
	C135.496323,36.346310 134.680649,34.355705 133.605682,31.732344 
	C132.532288,34.386780 131.770538,36.270493 130.982880,38.521950 
	C129.478882,38.889694 128.000793,38.889694 126.456490,38.889694 
	C125.489700,35.279274 124.541382,31.737835 123.429787,27.586620 
	C121.835594,30.793173 120.391685,33.697441 118.764915,36.886436 
	C116.322182,37.777023 114.062302,38.382881 111.312775,38.586205 
	C109.856827,37.805088 108.890526,37.426502 107.924225,37.047916 
	C107.924225,37.047916 107.989082,37.004665 107.983734,36.619743 
	C108.017120,35.116009 108.055855,33.997196 108.435852,33.026981 
	C112.834946,36.263805 114.153435,35.923000 117.520416,30.894211 
	C119.610100,28.789989 119.842323,27.096733 116.570862,25.873535 
	C114.196060,25.266104 111.948685,24.111921 110.194038,24.629171 
	C109.083534,24.956535 108.545486,27.731611 108.063240,29.494375 
	C107.774666,30.549198 108.089073,31.768978 107.775131,32.924561 
	C106.000053,31.955961 104.582275,30.977413 103.087349,29.625795 
	C103.068565,28.497597 103.126938,27.742468 103.359787,26.845787 
	C103.746262,26.482855 103.892281,26.224218 103.992126,25.613750 
	C104.056259,24.881657 104.100578,24.464142 104.457581,23.915438 
	C107.018616,22.247208 109.266960,20.710167 111.884628,19.253178 
	C113.500992,19.421579 114.748016,19.509928 116.081360,19.889065 
	C117.144653,20.774429 118.121651,21.369003 119.462799,22.140945 
	C120.315750,23.218157 120.804527,24.118002 121.293304,25.017847 
	C121.673203,24.711979 122.053108,24.406111 122.433006,24.100245 
	C122.163612,22.728275 121.894218,21.356306 121.747025,19.761196 
	C121.918915,19.375891 121.968613,19.213728 122.344032,19.026413 
	C123.103386,19.027489 123.537003,19.053713 124.137802,19.411266 
	C126.057770,22.331881 127.810577,24.921165 130.317078,28.623835 
	C131.122986,24.684000 131.597931,22.362181 132.484192,20.009060 
	C136.641113,20.409788 140.396408,20.961929 143.974655,19.050182 
	C143.994095,19.016762 143.923492,19.048307 144.006668,19.301014 
	C144.415253,19.376425 144.740646,19.199131 145.381531,19.001408 
	C146.115082,19.026463 146.533188,19.071949 146.960510,19.470531 
	C146.950989,20.528049 146.932251,21.232470 146.617996,22.057877 
	C146.269424,22.785086 146.216354,23.391304 146.163284,23.997522 
	C145.127533,26.741405 144.091782,29.485291 143.117828,32.612381 
	C142.785553,34.375710 142.391464,35.755833 141.621857,37.563873 
	C139.979843,38.370377 138.713364,38.748955 137.446869,39.127533 
M140.566574,27.031118 
	C140.888931,25.482521 141.211288,23.933924 141.799820,21.106703 
	C139.889572,22.288376 138.025269,22.983162 138.073364,23.499937 
	C138.204773,24.911657 139.142487,26.248323 140.566574,27.031118 
M138.382401,29.510159 
	C138.844193,29.746838 139.305984,29.983517 139.767776,30.220198 
	C139.651611,29.206827 139.535461,28.193455 139.419312,27.180084 
	C139.014862,27.680241 138.610413,28.180399 138.382401,29.510159 
z"/>
<path fill="#FEFEFE" opacity="1.000000" stroke="none" 
	d="
M96.432358,38.087715 
	C94.948936,38.104427 93.892860,38.047398 92.432098,37.488495 
	C92.027428,34.707203 92.027428,32.427780 92.027428,30.148355 
	C91.563477,29.738853 91.099525,29.329351 90.635567,28.919849 
	C88.702415,30.279133 86.769272,31.638416 84.529602,32.949066 
	C81.515411,29.427958 82.066002,27.054594 85.934677,26.265926 
	C86.372704,26.631062 86.699173,26.733650 87.419968,26.907904 
	C88.877998,26.922047 89.941727,26.864525 91.255219,26.870834 
	C91.699387,26.664045 91.893784,26.393425 92.426010,25.896812 
	C92.861076,24.044769 92.958313,22.418715 93.044998,20.732260 
	C93.034447,20.671858 92.990166,20.557497 93.269867,20.318325 
	C94.032654,19.991102 94.515739,19.903049 95.310593,19.897694 
	C96.047806,20.038464 96.473259,20.096539 96.950279,20.369415 
	C97.001854,20.584217 97.163574,20.995363 97.090515,21.407925 
	C97.099693,23.210667 97.181923,24.600845 97.180168,26.422264 
	C97.126427,28.898119 97.156677,30.942736 97.130135,33.257610 
	C97.384651,33.635017 97.695976,33.742165 98.364937,33.919010 
	C99.451004,33.980690 100.179428,33.972675 101.196030,33.980927 
	C101.676453,34.005753 101.868698,34.014313 102.060936,34.022873 
	C102.425819,35.200111 102.790695,36.377354 103.297958,38.013969 
	C100.794167,38.013969 98.826927,38.013969 96.432358,38.087715 
z"/>
<path fill="#FAFBF9" opacity="1.000000" stroke="none" 
	d="
M102.420578,33.991936 
	C101.868698,34.014313 101.676453,34.005753 101.262360,33.620754 
	C101.748505,32.162498 102.456505,31.080681 103.164497,29.998863 
	C104.582275,30.977413 106.000053,31.955961 107.727722,32.955185 
	C108.037613,32.975861 108.094589,32.878380 108.094589,32.878380 
	C108.055855,33.997196 108.017120,35.116009 107.966110,36.654510 
	C106.229294,36.036465 104.504761,34.998730 102.420578,33.991936 
z"/>
<path fill="#FAFBF9" opacity="1.000000" stroke="none" 
	d="
M108.052094,37.353859 
	C108.890526,37.426502 109.856827,37.805088 110.912201,38.505318 
	C110.060829,38.437904 109.120399,38.048851 108.052094,37.353859 
z"/>
<path fill="#FCFBFC" opacity="1.000000" stroke="none" 
	d="
M92.990166,20.557497 
	C92.990166,20.557497 93.034447,20.671858 92.708214,20.728863 
	C91.929451,21.536755 91.476913,22.287640 90.633881,23.010715 
	C88.891960,23.354076 87.540543,23.725243 86.110168,24.410931 
	C85.961838,25.151426 85.892479,25.577402 85.823120,26.003378 
	C82.066002,27.054594 81.515411,29.427958 84.603455,33.358040 
	C84.962753,35.199284 84.941689,36.582924 84.920631,37.966560 
	C83.919540,37.964924 82.918449,37.963287 81.542068,37.943123 
	C80.785805,36.541893 80.404846,35.159203 80.409149,33.208038 
	C80.813026,30.763174 80.831635,28.886782 80.924225,26.664989 
	C80.700623,25.516422 80.403046,24.713255 80.058952,23.705410 
	C80.012436,23.500732 79.970894,23.083000 79.859024,22.792042 
	C79.497910,21.715208 79.248657,20.929331 79.290848,20.062868 
	C79.775093,19.923443 79.967903,19.864605 80.435150,19.827217 
	C80.872162,19.763542 81.034737,19.678417 81.603134,19.655064 
	C83.916183,19.687433 85.823395,19.658033 88.135910,19.779392 
	C89.391029,19.855921 90.240837,19.781689 91.293030,19.759392 
	C91.495422,19.811329 91.905525,19.731030 92.147102,19.930574 
	C92.574783,20.035261 92.760895,19.940401 92.871719,20.028748 
	C92.796448,20.211956 92.990166,20.557497 92.990166,20.557497 
z"/>
<path fill="#22401A" opacity="1.000000" stroke="none" 
	d="
M85.273361,38.125237 
	C84.941689,36.582924 84.962753,35.199284 84.909973,33.406673 
	C86.769272,31.638416 88.702415,30.279133 90.635567,28.919849 
	C91.099525,29.329351 91.563477,29.738853 92.027428,30.148355 
	C92.027428,32.427780 92.027428,34.707203 92.038834,37.428692 
	C89.908852,38.008476 87.767471,38.146191 85.273361,38.125237 
z"/>
<path fill="#FAFDFB" opacity="1.000000" stroke="none" 
	d="
M19.996006,38.156811 
	C16.483908,39.244732 12.990332,40.209152 10.004503,36.341553 
	C11.600050,30.159735 15.050643,36.283516 18.349850,34.180229 
	C17.613569,33.038036 16.908518,31.640066 15.919472,30.485342 
	C14.620949,28.969299 13.098656,27.644918 11.357441,26.068367 
	C10.920370,20.078941 14.803773,19.752285 19.534637,20.069654 
	C20.713551,20.438362 21.472794,20.749727 22.546829,21.331692 
	C22.921558,21.761257 22.981491,21.920223 22.742422,22.168455 
	C21.957745,22.888079 21.472069,23.518438 20.631157,24.075445 
	C18.872133,24.002094 17.468348,24.002094 16.064560,24.002094 
	C16.071602,24.484085 16.078644,24.966076 16.085686,25.448067 
	C17.338629,25.989773 18.591570,26.531479 20.002144,27.404564 
	C23.395306,29.670176 23.219011,32.772816 22.666447,36.026703 
	C21.582436,36.818062 20.789221,37.487438 19.996006,38.156811 
z"/>
<path fill="#0B471E" opacity="1.000000" stroke="none" 
	d="
M48.918186,2.416278 
	C50.365238,2.047234 51.764091,2.022892 53.582687,2.370044 
	C54.335293,3.827798 54.668156,4.914056 54.997574,6.248236 
	C54.994137,6.496158 54.990044,6.992030 54.587734,6.994262 
	C48.500572,9.823107 42.815720,12.649720 36.956017,15.563272 
	C37.892097,17.573629 38.417671,18.702374 38.963467,19.915733 
	C38.983685,20.000347 39.054077,20.159462 38.610939,20.086071 
	C35.778358,19.950760 33.388920,19.888836 30.999481,19.826914 
	C30.511276,19.212246 30.074371,18.546907 29.525976,17.991692 
	C27.164116,15.600452 27.192350,14.456772 30.724192,12.838270 
	C36.995201,9.964515 42.844353,6.170184 48.918186,2.416278 
z"/>
<path fill="#FCFEFB" opacity="1.000000" stroke="none" 
	d="
M30.577179,19.901375 
	C33.388920,19.888836 35.778358,19.950760 38.528763,20.390913 
	C38.233978,21.577875 37.578232,22.386606 36.693241,23.196692 
	C36.183964,23.373350 36.026695,23.625290 35.595924,23.975216 
	C34.522217,24.995447 33.844784,25.994324 33.091255,27.425411 
	C33.065735,29.905590 33.116310,31.953554 33.028709,34.313217 
	C32.648087,35.424702 32.405632,36.224491 32.082214,37.231819 
	C32.001255,37.439358 31.942379,37.881001 31.548466,37.927742 
	C30.101553,38.036053 29.048553,38.097630 27.995554,38.159206 
	C27.572165,38.103947 27.148775,38.048687 26.368269,37.541359 
	C26.711998,31.896862 29.558050,26.350386 23.681351,21.884943 
	C23.722328,21.254492 23.646130,21.001961 23.569933,20.749432 
	C25.764915,20.491568 27.959896,20.233702 30.577179,19.901375 
z"/>
<path fill="#7E8C85" opacity="1.000000" stroke="none" 
	d="
M23.353682,20.737873 
	C23.646130,21.001961 23.722328,21.254492 23.514427,21.942345 
	C23.230330,22.377666 23.041426,22.079191 23.041426,22.079191 
	C22.981491,21.920223 22.921558,21.761257 22.885822,21.348610 
	C22.910021,21.094931 23.137430,20.726315 23.353682,20.737873 
z"/>
<path fill="#FCFEFB" opacity="1.000000" stroke="none" 
	d="
M49.409798,39.085342 
	C47.898979,38.505955 46.800812,37.852417 45.373634,37.032162 
	C44.252884,35.897411 43.461140,34.929375 42.315468,33.529877 
	C42.154148,31.052917 35.213993,28.813971 42.465984,26.970230 
	C43.457485,26.452282 44.111282,25.914885 44.765079,25.377487 
	C43.857487,24.955851 42.949890,24.534216 42.031445,23.718500 
	C42.013641,22.273203 42.006695,21.221983 42.391258,20.095901 
	C43.844585,20.030369 44.906410,20.039698 46.076786,20.350315 
	C47.126362,21.025686 48.067379,21.399769 49.339409,21.949078 
	C49.510090,23.745447 49.349762,25.366589 49.108528,27.346405 
	C48.039684,28.818251 47.051746,29.931421 46.539978,30.508060 
	C47.894180,32.338039 49.218643,34.127834 50.799835,36.264553 
	C52.613705,31.485771 54.225349,27.239767 55.920494,22.742466 
	C56.059460,22.323568 56.114918,22.155966 56.344143,21.845057 
	C56.727123,21.475967 56.866936,21.213251 56.962742,20.957262 
	C56.988140,21.000929 56.918926,20.926903 57.205414,20.923447 
	C57.989452,20.671431 58.487007,20.422873 59.243271,20.106968 
	C59.673515,20.087967 59.845055,20.136314 60.188953,20.370825 
	C60.832413,20.728390 61.303513,20.899790 61.871552,21.052473 
	C61.968494,21.033756 62.149143,20.954006 62.072136,21.333288 
	C63.279907,24.494854 64.564690,27.277138 65.955246,30.309299 
	C66.363716,30.737917 66.666428,30.916656 67.004242,31.307770 
	C67.039360,31.520144 67.184853,31.925331 67.106537,32.229595 
	C67.668304,32.695591 68.308395,32.857323 68.948479,33.019054 
	C68.555519,35.657425 69.716293,39.346062 64.449883,38.585262 
	C62.527580,34.136398 60.508518,33.767105 56.955372,36.884476 
	C56.165558,37.562447 55.375744,38.240417 54.294464,39.039558 
	C52.609482,39.110886 51.215961,39.061039 49.409798,39.085342 
M58.040882,29.532192 
	C58.040882,29.532192 58.117226,29.953819 57.565041,30.047169 
	C57.414764,30.109602 57.242382,30.144495 57.120525,30.242325 
	C57.002087,30.337402 56.935463,30.497015 56.846088,30.628290 
	C58.449562,31.111168 60.053036,31.594046 61.656509,32.076923 
	C61.409420,31.374212 61.162331,30.671503 60.981419,29.343468 
	C60.259441,28.900549 59.537464,28.457628 58.466393,28.308033 
	C58.256618,28.537409 58.113121,28.802645 58.040882,29.532192 
M59.326538,25.594387 
	C59.282700,25.309719 59.238861,25.025051 59.195026,24.740383 
	C59.117626,25.040775 59.040222,25.341166 59.326538,25.594387 
z"/>
<path fill="#FCFCFB" opacity="1.000000" stroke="none" 
	d="
M78.999413,20.143456 
	C79.248657,20.929331 79.497910,21.715208 79.558762,22.795185 
	C79.200027,23.194633 79.029678,23.299980 78.594467,23.380667 
	C77.883186,23.570339 77.436752,23.784668 76.635391,24.168943 
	C76.262421,25.909731 76.244377,27.480574 76.168167,29.414431 
	C76.151749,30.509031 76.193489,31.240618 76.169632,32.227673 
	C76.375420,32.689884 76.646812,32.896622 76.948029,33.096054 
	C76.977859,33.088753 76.963448,33.029083 76.963448,33.029083 
	C75.390144,34.608925 77.213791,39.835258 71.996475,37.551834 
	C71.867882,35.985416 71.736038,34.379482 71.342499,32.383381 
	C71.080803,31.993210 70.842171,31.877884 70.876938,31.602623 
	C70.862251,30.777796 70.812805,30.228230 70.873138,29.355309 
	C70.932701,28.357697 70.882477,27.683437 70.896851,26.677998 
	C70.919662,25.900845 70.877861,25.454874 70.889191,24.737812 
	C70.627831,24.362787 70.313347,24.258854 69.666595,24.080379 
	C68.498985,23.338741 67.663651,22.671642 66.918121,21.617794 
	C69.674080,20.155291 72.340225,19.079533 75.237381,18.020802 
	C75.468391,18.037828 75.914116,18.164049 75.954666,18.447092 
	C76.327141,19.100264 76.659065,19.470390 77.322556,19.910877 
	C78.102554,20.035309 78.550987,20.089382 78.999413,20.143456 
z"/>
<path fill="#254215" opacity="1.000000" stroke="none" 
	d="
M57.118050,37.257469 
	C60.508518,33.767105 62.527580,34.136398 64.049988,38.563557 
	C62.617123,42.259747 61.127605,45.564117 59.320763,48.933769 
	C58.429203,45.209515 57.854965,41.419991 57.118050,37.257469 
z"/>
<path fill="#2F4815" opacity="1.000000" stroke="none" 
	d="
M76.235229,31.972202 
	C76.193489,31.240618 76.151749,30.509031 76.383980,29.414684 
	C76.657951,29.051920 77.087959,29.014727 77.413261,29.002863 
	C78.775795,28.330797 79.813019,27.670595 80.850243,27.010391 
	C80.831635,28.886782 80.813026,30.763174 80.444992,32.838531 
	C79.312561,33.030582 78.529564,33.023663 77.355011,33.022915 
	C76.963448,33.029083 76.977859,33.088753 76.914627,32.866898 
	C76.724770,32.348637 76.519386,32.124355 76.235229,31.972202 
z"/>
<path fill="#616F48" opacity="1.000000" stroke="none" 
	d="
M70.842171,31.877884 
	C70.842171,31.877884 71.080803,31.993210 71.056259,32.123566 
	C70.533066,32.498459 70.034416,32.743000 69.242126,33.003296 
	C68.308395,32.857323 67.668304,32.695591 67.560417,32.193726 
	C69.009132,31.861691 69.925652,31.869787 70.842171,31.877884 
z"/>
<path fill="#342614" opacity="1.000000" stroke="none" 
	d="
M137.578979,39.351593 
	C138.713364,38.748955 139.979843,38.370377 141.599472,37.935356 
	C142.827271,38.430046 143.701920,38.981171 144.788666,39.767719 
	C144.743927,40.498997 144.487137,40.994846 143.794952,41.601353 
	C141.574997,41.142776 139.790405,40.573544 138.005829,40.004311 
	C137.907578,39.861420 137.809341,39.718533 137.578979,39.351593 
z"/>
<path fill="#164F15" opacity="1.000000" stroke="none" 
	d="
M19.997520,38.512325 
	C20.789221,37.487438 21.582436,36.818062 22.679525,36.375454 
	C22.994860,37.067532 23.006319,37.532841 23.017778,37.998150 
	C22.237564,38.967167 21.457348,39.936184 20.343254,40.953079 
	C20.005926,40.289917 20.002480,39.578876 19.997520,38.512325 
z"/>
<path fill="#382816" opacity="1.000000" stroke="none" 
	d="
M138.143982,40.317253 
	C139.790405,40.573544 141.574997,41.142776 143.680084,41.856075 
	C144.003571,42.442913 144.006516,42.885689 144.012512,43.660374 
	C140.737595,45.202442 139.156097,43.519588 138.143982,40.317253 
z"/>
<path fill="#1E4318" opacity="1.000000" stroke="none" 
	d="
M146.496857,23.985840 
	C146.216354,23.391304 146.269424,22.785086 146.962555,22.071133 
	C148.062683,21.969305 148.522766,21.975216 148.982834,21.981125 
	C148.982834,21.981125 148.994186,21.993639 149.000458,22.000450 
	C148.281311,22.662893 147.555862,23.318523 146.496857,23.985840 
z"/>
<path fill="#382816" opacity="1.000000" stroke="none" 
	d="
M142.519852,47.394852 
	C145.139038,45.652580 145.139038,45.652580 145.984818,49.821213 
	C144.407211,48.878269 143.412003,48.283424 142.519852,47.394852 
z"/>
<path fill="#106B10" opacity="1.000000" stroke="none" 
	d="
M27.940235,38.491337 
	C29.048553,38.097630 30.101553,38.036053 31.679127,38.152901 
	C32.467216,38.552967 32.730728,38.774612 32.994244,38.996262 
	C32.839748,40.231873 32.685257,41.467484 32.083321,42.644234 
	C31.073174,43.037354 30.510471,43.489334 29.947769,43.941315 
	C29.059332,44.438831 28.170893,44.936348 26.796862,45.763351 
	C25.542387,47.060745 24.773506,48.028648 24.004625,48.996552 
	C23.996666,49.438763 23.988708,49.880974 23.973267,50.654564 
	C22.552145,51.322666 21.138508,51.659382 19.352121,51.995724 
	C20.817636,49.003223 22.593605,45.970196 24.520117,43.036015 
	C25.502209,41.540234 26.754667,40.221970 27.940235,38.491337 
z"/>
<path fill="#0E4519" opacity="1.000000" stroke="none" 
	d="
M23.401306,37.996086 
	C23.006319,37.532841 22.994860,37.067532 22.970322,36.253471 
	C23.219011,32.772816 23.395306,29.670176 20.261620,27.199602 
	C20.571106,25.825106 20.778749,24.986952 20.986393,24.148796 
	C21.472069,23.518438 21.957745,22.888079 22.742422,22.168455 
	C23.041426,22.079191 23.230330,22.377666 23.397255,22.320263 
	C29.558050,26.350386 26.711998,31.896862 26.047743,37.512978 
	C25.317833,37.955784 24.551332,37.974903 23.401306,37.996086 
z"/>
<path fill="#FBFDFB" opacity="1.000000" stroke="none" 
	d="
M42.128281,26.950783 
	C35.213993,28.813971 42.154148,31.052917 41.980812,33.450073 
	C41.554058,35.133751 41.108044,36.465771 39.961678,37.910599 
	C38.200420,37.703419 37.139515,37.383430 36.054329,37.054520 
	C36.030052,37.045589 36.047489,37.094257 36.299210,37.013165 
	C36.644352,36.628654 36.737774,36.325237 36.911400,35.677788 
	C36.700768,34.539680 36.409935,33.745609 36.068436,32.648457 
	C36.036224,31.936575 36.054680,31.527773 36.423874,30.900494 
	C36.823902,28.186457 36.873196,25.690897 36.922485,23.195337 
	C37.578232,22.386606 38.233978,21.577875 38.971901,20.464302 
	C39.054077,20.159462 38.983685,20.000347 39.341911,19.991016 
	C40.466671,20.044714 41.233212,20.107740 41.999748,20.170765 
	C42.006695,21.221983 42.013641,22.273203 42.008331,24.073860 
	C42.040142,25.532461 42.084213,26.241623 42.128281,26.950783 
z"/>
<path fill="#0B730B" opacity="1.000000" stroke="none" 
	d="
M36.078609,37.063446 
	C37.139515,37.383430 38.200420,37.703419 39.628700,38.090553 
	C40.817154,42.818436 37.512806,45.137688 34.295052,47.831749 
	C34.453312,46.503258 35.310936,45.003601 35.255573,43.538441 
	C35.199554,42.056049 34.239853,40.607803 33.335121,39.070431 
	C32.730728,38.774612 32.467216,38.552967 32.073040,38.106159 
	C31.942379,37.881001 32.001255,37.439358 32.345848,37.343449 
	C33.819832,37.186172 34.949219,37.124809 36.078609,37.063446 
z"/>
<path fill="#146C15" opacity="1.000000" stroke="none" 
	d="
M146.951279,19.117435 
	C146.533188,19.071949 146.115082,19.026463 145.095566,18.996841 
	C144.303925,19.024572 144.113708,19.036440 143.923492,19.048307 
	C143.923492,19.048307 143.994095,19.016762 143.893219,18.683590 
	C141.218445,17.575994 138.644562,16.801573 136.061035,15.711426 
	C136.050247,14.974787 136.049072,14.553874 136.273499,13.989766 
	C136.719574,13.568622 136.940002,13.290672 137.451569,13.048336 
	C138.861771,13.043657 139.980881,13.003365 141.313538,12.956404 
	C141.527100,12.949736 141.949585,12.885500 141.997986,13.166780 
	C142.659134,13.496713 143.446213,13.816527 143.857651,13.552033 
	C147.929794,10.934226 146.940536,6.768703 146.981323,2.924423 
	C147.409164,2.889911 147.837006,2.855399 148.615601,3.285538 
	C148.978378,6.167945 148.990417,8.585700 149.002441,11.003456 
	C148.669464,13.071733 148.336487,15.140010 147.782532,17.745621 
	C147.358139,18.561115 147.154709,18.839275 146.951279,19.117435 
z"/>
<path fill="#135F12" opacity="1.000000" stroke="none" 
	d="
M149.361282,10.944004 
	C148.990417,8.585700 148.978378,6.167945 148.937592,3.289191 
	C148.908829,2.828192 148.976227,2.453209 149.029175,2.270822 
	C150.178467,2.291813 151.274796,2.495191 152.683975,2.828557 
	C151.904572,5.600547 150.812332,8.242549 149.361282,10.944004 
z"/>
<path fill="#225B17" opacity="1.000000" stroke="none" 
	d="
M146.960510,19.470533 
	C147.154709,18.839275 147.358139,18.561115 147.781570,18.143517 
	C148.749329,18.005743 149.497070,18.007404 150.618408,18.014814 
	C150.366043,19.128138 149.740051,20.235714 149.048447,21.662209 
	C148.522766,21.975216 148.062683,21.969305 147.258057,21.950142 
	C146.932251,21.232470 146.950989,20.528049 146.960510,19.470533 
z"/>
<path fill="#117E12" opacity="1.000000" stroke="none" 
	d="
M24.374226,48.995914 
	C24.773506,48.028648 25.542387,47.060745 26.641922,46.039978 
	C27.472578,46.474110 27.972580,46.961098 28.472584,47.448090 
	C27.229664,47.963818 25.986746,48.479549 24.374226,48.995914 
z"/>
<path fill="#117E12" opacity="1.000000" stroke="none" 
	d="
M30.117287,44.108425 
	C30.510471,43.489334 31.073174,43.037354 31.825382,42.776695 
	C31.438858,43.403854 30.862829,43.839699 30.117287,44.108425 
z"/>
<path fill="#1D6A13" opacity="1.000000" stroke="none" 
	d="
M96.073952,2.105016 
	C96.073952,2.105016 96.551048,2.067065 96.788803,2.037258 
	C101.405922,2.318373 105.785278,2.629295 110.584526,3.306114 
	C110.997162,4.363585 110.989922,5.055159 110.621811,5.792204 
	C109.776642,5.864283 109.292358,5.890891 108.601318,5.917268 
	C108.394562,5.917036 107.981438,5.934780 107.760117,5.742321 
	C106.024414,6.365442 104.510033,7.181022 102.626205,7.998298 
	C100.503029,8.670456 98.749298,9.340918 96.981949,9.617340 
	C96.649612,7.150363 96.330910,5.077427 96.026611,2.779552 
	C96.041008,2.554612 96.073952,2.105016 96.073952,2.105016 
z"/>
<path fill="#207C13" opacity="1.000000" stroke="none" 
	d="
M110.982681,5.746733 
	C110.989922,5.055159 110.997162,4.363585 111.009094,3.324502 
	C111.013779,2.976992 111.472694,2.954418 111.971893,2.964210 
	C112.651459,2.977267 112.831833,2.980533 113.012199,2.983799 
	C113.012199,2.983799 113.015244,3.026021 113.123062,3.231547 
	C113.418091,3.672207 113.643280,3.862347 113.906464,4.007493 
	C113.906464,4.007493 113.976311,3.984682 114.131279,4.300072 
	C114.536552,5.244365 114.786858,5.873269 114.631592,6.400245 
	C113.144905,6.114456 112.063789,5.930594 110.982681,5.746733 
z"/>
<path fill="#34801C" opacity="1.000000" stroke="none" 
	d="
M112.938126,2.775389 
	C112.831833,2.980533 112.651459,2.977267 112.201057,2.947933 
	C112.036522,2.720295 112.174187,2.543850 112.478165,2.297874 
	C112.612305,2.203218 112.864044,2.566979 112.938126,2.775389 
z"/>
<path fill="#10501D" opacity="1.000000" stroke="none" 
	d="
M55.001015,6.000315 
	C54.668156,4.914056 54.335293,3.827798 54.001381,2.382180 
	C55.471607,2.102612 56.942886,2.182404 58.712181,2.130076 
	C65.695145,2.008853 72.380089,2.019749 79.533768,2.019120 
	C80.002487,2.007595 80.497993,2.064756 80.746971,2.450875 
	C80.992065,3.557075 80.988174,4.277158 80.597961,4.999744 
	C77.805847,5.670635 75.400063,6.339022 72.532013,7.006377 
	C66.380173,6.670335 60.690594,6.335325 55.001015,6.000315 
z"/>
<path fill="#2D6A1A" opacity="1.000000" stroke="none" 
	d="
M96.012207,3.004492 
	C96.330910,5.077427 96.649612,7.150363 96.829315,9.902441 
	C96.108574,11.713466 95.526848,12.845350 94.536903,13.981220 
	C92.762238,13.996506 91.395782,14.007805 89.814957,13.895971 
	C89.325195,13.577783 89.116234,13.327308 89.221130,12.790329 
	C89.975037,11.054271 90.481514,9.549296 90.993950,7.670282 
	C91.368851,6.179236 91.737801,5.062230 92.352043,3.832327 
	C92.867714,3.477168 93.138092,3.234907 93.408478,2.992647 
	C93.408478,2.992648 93.712044,3.003917 94.196198,3.000344 
	C95.124306,2.999344 95.568260,3.001918 96.012207,3.004492 
z"/>
<path fill="#22551C" opacity="1.000000" stroke="none" 
	d="
M80.984283,4.997240 
	C80.988174,4.277158 80.992065,3.557075 80.994659,2.480057 
	C83.672943,2.103377 86.352524,2.083632 89.501892,2.487637 
	C89.961174,4.273307 89.950676,5.635227 89.530838,6.998271 
	C87.748474,6.999774 86.375458,7.000154 84.714111,6.847934 
	C83.278618,6.129303 82.131447,5.563271 80.984283,4.997240 
z"/>
<path fill="#3C5F22" opacity="1.000000" stroke="none" 
	d="
M89.940178,6.997148 
	C89.950676,5.635227 89.961174,4.273307 89.946503,2.507560 
	C90.464371,2.194768 91.007393,2.285802 91.789574,2.862457 
	C92.054741,3.547127 92.080750,3.746176 92.106750,3.945225 
	C91.737801,5.062230 91.368851,6.179236 90.781517,7.536631 
	C90.355476,7.517063 90.147827,7.257106 89.940178,6.997148 
z"/>
<path fill="#347521" opacity="1.000000" stroke="none" 
	d="
M96.026611,2.779552 
	C95.568260,3.001918 95.124306,2.999344 94.347885,2.992553 
	C94.015404,2.988336 94.051857,2.619790 94.089096,2.440716 
	C94.556534,2.195251 94.986717,2.128860 95.745430,2.083743 
	C96.073952,2.105016 96.041008,2.554612 96.026611,2.779552 
z"/>
<path fill="#7B8850" opacity="1.000000" stroke="none" 
	d="
M92.352043,3.832327 
	C92.080750,3.746176 92.054741,3.547127 92.001427,3.044930 
	C92.213684,2.775693 92.453247,2.809603 93.050644,2.918080 
	C93.138092,3.234907 92.867714,3.477168 92.352043,3.832327 
z"/>
<path fill="#196D12" opacity="1.000000" stroke="none" 
	d="
M115.257263,3.982834 
	C115.216171,3.577668 115.175087,3.172504 115.147827,2.463729 
	C116.496513,2.116971 117.831352,2.073825 119.568710,2.015577 
	C123.016129,2.008152 126.061028,2.015829 129.779785,2.266266 
	C131.153900,2.984746 131.854156,3.460464 133.796829,4.780210 
	C129.939438,5.319225 127.467766,5.664605 124.613441,6.008285 
	C122.830246,6.619270 121.429718,7.231954 119.705322,7.880602 
	C118.615089,7.559240 117.848709,7.201914 117.068207,6.520806 
	C116.455139,5.458961 115.856201,4.720898 115.257263,3.982834 
z"/>
<path fill="#127613" opacity="1.000000" stroke="none" 
	d="
M124.996101,6.009984 
	C127.467766,5.664605 129.939438,5.319225 133.796829,4.780210 
	C131.854156,3.460464 131.153900,2.984746 130.234894,2.284913 
	C131.410950,2.027138 132.805771,1.993476 134.619690,1.925216 
	C136.407089,1.939887 137.775345,1.989156 139.566330,2.453805 
	C139.989151,3.909323 139.989243,4.949460 139.650604,6.039466 
	C137.874664,6.728888 136.437424,7.368441 134.625549,8.004857 
	C133.501617,8.001929 132.752335,8.002139 131.581451,8.001053 
	C129.105270,7.336500 127.050682,6.673242 124.996101,6.009984 
z"/>
<path fill="#0F8210" opacity="1.000000" stroke="none" 
	d="
M135.000198,8.007993 
	C136.437424,7.368441 137.874664,6.728888 139.698059,6.322000 
	C140.740036,6.671084 141.395844,6.787502 142.051666,6.903922 
	C142.685364,5.809093 143.319046,4.714264 144.085861,3.313220 
	C144.909500,2.973241 145.600006,2.939476 146.635925,2.915067 
	C146.940536,6.768703 147.929794,10.934226 143.857651,13.552033 
	C143.446213,13.816527 142.659134,13.496713 142.023239,12.848236 
	C141.614090,11.496438 141.228104,10.744464 140.445892,9.994377 
	C138.366516,9.333508 136.683350,8.670750 135.000198,8.007993 
z"/>
<path fill="#128712" opacity="1.000000" stroke="none" 
	d="
M142.030289,6.511701 
	C141.395844,6.787502 140.740036,6.671084 140.036774,6.272131 
	C139.989243,4.949460 139.989151,3.909323 139.976807,2.481474 
	C140.421478,2.305724 140.878418,2.517685 141.551956,2.863451 
	C141.848679,4.037998 141.928802,5.078740 142.030289,6.511701 
z"/>
<path fill="#428A2D" opacity="1.000000" stroke="none" 
	d="
M114.955338,3.984869 
	C115.856201,4.720898 116.455139,5.458961 116.827042,6.629704 
	C116.432495,7.115925 116.264984,7.169466 115.906960,7.118421 
	C115.457993,6.885757 115.231567,6.715204 115.037163,6.502172 
	C114.786858,5.873269 114.536552,5.244365 114.167908,4.297318 
	C114.250847,3.981750 114.452126,3.984327 114.955338,3.984869 
z"/>
<path fill="#1D6A13" opacity="1.000000" stroke="none" 
	d="
M113.822739,3.792760 
	C113.643280,3.862347 113.418091,3.672207 113.112022,3.249603 
	C113.304802,3.143008 113.553421,3.314973 113.822739,3.792760 
z"/>
<path fill="#1D3D18" opacity="1.000000" stroke="none" 
	d="
M108.085022,32.945236 
	C108.089073,31.768978 107.774666,30.549198 108.063240,29.494375 
	C108.545486,27.731611 109.083534,24.956535 110.194038,24.629171 
	C111.948685,24.111921 114.196060,25.266104 116.613876,26.286793 
	C117.057816,28.240990 117.122780,29.621288 117.187744,31.001585 
	C114.153435,35.923000 112.834946,36.263805 108.435852,33.026981 
	C108.094589,32.878380 108.037613,32.975861 108.085022,32.945236 
z"/>
<path fill="#206317" opacity="1.000000" stroke="none" 
	d="
M122.018311,19.051563 
	C121.968613,19.213728 121.918915,19.375891 121.405899,19.761581 
	C120.260841,20.011040 119.579094,20.036974 118.578110,19.927979 
	C117.504257,19.728127 116.749657,19.663202 115.995049,19.598276 
	C114.748016,19.509928 113.500992,19.421579 111.585014,19.114132 
	C110.608795,18.584797 110.301529,18.274563 110.056046,17.608765 
	C113.089973,15.828367 116.062111,14.403535 119.322754,12.987564 
	C119.996277,13.015721 120.381302,13.035017 120.913239,13.275260 
	C121.353172,13.680948 121.646187,13.865688 121.925865,14.408945 
	C121.956131,15.481101 121.999741,16.194740 122.025528,17.265335 
	C122.011246,18.098715 122.014778,18.575140 122.018311,19.051563 
M120.489395,17.550680 
	C120.489395,17.550680 120.454292,17.479553 120.489395,17.550680 
z"/>
<path fill="#185B14" opacity="1.000000" stroke="none" 
	d="
M109.994255,17.964329 
	C110.301529,18.274563 110.608795,18.584797 111.215683,19.034079 
	C109.266960,20.710167 107.018616,22.247208 104.093964,23.950798 
	C101.366486,24.741909 99.315323,25.366468 97.264160,25.991028 
	C97.181923,24.600845 97.099693,23.210667 97.294662,21.400696 
	C97.571869,20.980906 97.980164,20.966383 98.283852,21.106232 
	C99.921532,20.909260 101.267586,20.613573 102.586914,20.226753 
	C105.064186,19.500427 107.526009,18.721424 109.994255,17.964329 
z"/>
<path fill="#225B17" opacity="1.000000" stroke="none" 
	d="
M136.070663,16.027151 
	C138.644562,16.801573 141.218445,17.575994 143.873779,18.717010 
	C140.396408,20.961929 136.641113,20.409788 132.124313,19.991104 
	C129.898346,19.330864 128.443588,18.657276 127.166634,17.757256 
	C128.576706,17.348557 129.808960,17.166288 131.423553,16.986618 
	C133.227463,16.668530 134.649063,16.347841 136.070663,16.027151 
z"/>
<path fill="#1D4817" opacity="1.000000" stroke="none" 
	d="
M97.180168,26.422264 
	C99.315323,25.366468 101.366486,24.741909 103.781273,24.081987 
	C104.100578,24.464142 104.056259,24.881657 103.737015,25.683083 
	C103.369827,26.373774 103.277573,26.680557 103.185310,26.987339 
	C103.126938,27.742468 103.068565,28.497597 103.087349,29.625793 
	C102.456505,31.080681 101.748505,32.162498 100.974182,33.604492 
	C100.179428,33.972675 99.451004,33.980690 98.258438,33.747917 
	C97.635399,33.282967 97.432953,33.109707 97.186935,32.987354 
	C97.156677,30.942736 97.126427,28.898119 97.180168,26.422264 
z"/>
<path fill="#374A1E" opacity="1.000000" stroke="none" 
	d="
M126.988831,17.983688 
	C128.443588,18.657276 129.898346,19.330864 131.712982,20.022408 
	C131.597931,22.362181 131.122986,24.684000 130.317078,28.623835 
	C127.810577,24.921165 126.057770,22.331881 124.155640,19.143894 
	C124.025810,18.367744 124.045311,18.190296 124.294907,18.000313 
	C124.524986,17.987778 124.986084,17.956146 125.319885,17.963497 
	C126.098740,17.975130 126.543785,17.979408 126.988831,17.983688 
z"/>
<path fill="#1E3A17" opacity="1.000000" stroke="none" 
	d="
M140.163696,27.322918 
	C139.142487,26.248323 138.204773,24.911657 138.073364,23.499937 
	C138.025269,22.983162 139.889572,22.288376 141.799820,21.106703 
	C141.211288,23.933924 140.888931,25.482521 140.163696,27.322918 
z"/>
<path fill="#FAFBF9" opacity="1.000000" stroke="none" 
	d="
M117.520416,30.894211 
	C117.122780,29.621288 117.057816,28.240990 116.949844,26.447433 
	C119.842323,27.096733 119.610100,28.789989 117.520416,30.894211 
z"/>
<path fill="#2F4E28" opacity="1.000000" stroke="none" 
	d="
M118.897354,20.062906 
	C119.579094,20.036974 120.260841,20.011040 121.283707,19.984722 
	C121.894218,21.356306 122.163612,22.728275 122.433006,24.100245 
	C122.053108,24.406111 121.673203,24.711979 121.293304,25.017847 
	C120.804527,24.118002 120.315750,23.218157 119.419456,21.824862 
	C118.973747,20.908575 118.935547,20.485741 118.897354,20.062906 
z"/>
<path fill="#FAFBF9" opacity="1.000000" stroke="none" 
	d="
M118.578110,19.927979 
	C118.935547,20.485741 118.973747,20.908575 119.055298,21.647495 
	C118.121651,21.369003 117.144653,20.774429 116.081360,19.889065 
	C116.749657,19.663202 117.504257,19.728127 118.578110,19.927979 
z"/>
<path fill="#1E3A17" opacity="1.000000" stroke="none" 
	d="
M138.294189,29.095356 
	C138.610413,28.180399 139.014862,27.680241 139.419312,27.180084 
	C139.535461,28.193455 139.651611,29.206827 139.767776,30.220196 
	C139.305984,29.983517 138.844193,29.746838 138.294189,29.095356 
z"/>
<path fill="#37511A" opacity="1.000000" stroke="none" 
	d="
M124.064819,18.012850 
	C124.045311,18.190296 124.025810,18.367744 123.988464,18.812565 
	C123.537003,19.053713 123.103386,19.027489 122.344040,19.026413 
	C122.014778,18.575140 122.011246,18.098715 122.271179,17.290993 
	C122.534637,16.959692 123.027046,17.005856 123.015823,17.005032 
	C123.004593,17.004208 123.011223,16.995777 123.115761,17.221430 
	C123.426598,17.724419 123.696274,17.909378 124.031624,18.004818 
	C124.033936,18.007671 124.064819,18.012850 124.064819,18.012850 
z"/>
<path fill="#225B17" opacity="1.000000" stroke="none" 
	d="
M144.006668,19.301014 
	C144.113708,19.036440 144.303925,19.024572 144.780090,19.017273 
	C144.740646,19.199131 144.415253,19.376425 144.006668,19.301014 
z"/>
<path fill="#FAFBF9" opacity="1.000000" stroke="none" 
	d="
M103.359787,26.845787 
	C103.277573,26.680557 103.369827,26.373774 103.717201,25.997660 
	C103.892281,26.224218 103.746262,26.482855 103.359787,26.845787 
z"/>
<path fill="#158410" opacity="1.000000" stroke="none" 
	d="
M97.980164,20.966383 
	C97.980164,20.966383 97.571869,20.980906 97.367722,20.988134 
	C97.163574,20.995363 97.001854,20.584217 96.817947,19.913874 
	C96.515518,18.950224 96.397011,18.656916 96.339417,18.337566 
	C96.400314,18.311522 96.325752,18.198835 96.548340,17.979763 
	C96.854561,16.832731 96.938194,15.904774 97.044205,14.956816 
	C97.066589,14.936815 97.108498,14.893841 97.306084,14.801414 
	C97.740677,14.525625 97.916382,14.295436 98.280334,13.795816 
	C100.018486,11.714343 101.507072,9.855474 102.995659,7.996603 
	C104.510033,7.181022 106.024414,6.365442 107.751572,5.894584 
	C107.964355,6.239305 107.981964,6.542799 107.774918,6.746033 
	C107.757568,7.327497 107.947281,7.705727 108.483536,8.053132 
	C109.279091,7.902964 109.728081,7.783618 110.592773,7.702415 
	C112.675659,7.820855 114.342834,7.901154 116.070648,8.204179 
	C116.131271,8.426906 116.225060,8.878842 115.878967,9.041240 
	C108.547813,11.432120 102.407486,14.921150 97.980164,20.966383 
z"/>
<path fill="#285F19" opacity="1.000000" stroke="none" 
	d="
M91.005447,26.807003 
	C89.941727,26.864525 88.877998,26.922047 87.409073,26.581785 
	C87.016228,25.530329 87.028587,24.876656 87.424744,24.142181 
	C88.851295,24.011129 89.894058,23.960878 91.161697,24.042999 
	C91.577797,24.456659 91.769020,24.737951 91.723228,25.030693 
	C91.325958,25.630430 91.165703,26.218716 91.005447,26.807003 
z"/>
<path fill="#809883" opacity="1.000000" stroke="none" 
	d="
M94.998833,19.814999 
	C94.515739,19.903049 94.032654,19.991102 93.269867,20.318325 
	C92.990166,20.557497 92.796448,20.211956 92.797813,19.780876 
	C92.762566,19.181658 92.725945,19.013517 92.884064,18.628502 
	C93.373657,17.923582 93.668533,17.435535 94.268784,16.823664 
	C94.986092,16.547415 95.398026,16.394991 95.848473,16.653965 
	C95.884247,17.340811 95.881508,17.616261 95.669128,18.072590 
	C95.305939,18.773981 95.152382,19.294489 94.998833,19.814999 
z"/>
<path fill="#52874C" opacity="1.000000" stroke="none" 
	d="
M91.960243,25.019241 
	C91.769020,24.737951 91.577797,24.456659 91.194000,23.826145 
	C91.001427,23.476923 91.024384,23.038525 91.024384,23.038525 
	C91.476913,22.287640 91.929451,21.536755 92.718765,20.789265 
	C92.958313,22.418715 92.861076,24.044769 92.387451,25.621698 
	C91.994125,25.388130 91.977188,25.203686 91.960243,25.019241 
z"/>
<path fill="#629960" opacity="1.000000" stroke="none" 
	d="
M95.310593,19.897694 
	C95.152382,19.294489 95.305939,18.773981 95.774033,18.161777 
	C96.088577,18.070084 96.296921,18.246855 96.295410,18.269890 
	C96.293907,18.292925 96.278511,18.363609 96.278511,18.363609 
	C96.397011,18.656916 96.515518,18.950224 96.766373,19.699072 
	C96.473259,20.096539 96.047806,20.038464 95.310593,19.897694 
z"/>
<path fill="#43612F" opacity="1.000000" stroke="none" 
	d="
M87.040955,24.222982 
	C87.028587,24.876656 87.016228,25.530329 87.014755,26.510120 
	C86.699173,26.733650 86.372704,26.631062 85.934677,26.265926 
	C85.892479,25.577402 85.961838,25.151426 86.324509,24.433168 
	C86.617821,24.140886 87.040955,24.222982 87.040955,24.222982 
z"/>
<path fill="#115704" opacity="1.000000" stroke="none" 
	d="
M91.723228,25.030693 
	C91.977188,25.203686 91.994125,25.388130 92.049629,25.847691 
	C91.893784,26.393425 91.699387,26.664045 91.255219,26.870834 
	C91.165703,26.218716 91.325958,25.630430 91.723228,25.030693 
z"/>
<path fill="#385F35" opacity="1.000000" stroke="none" 
	d="
M97.130135,33.257610 
	C97.432953,33.109707 97.635399,33.282967 97.900787,33.678223 
	C97.695976,33.742165 97.384651,33.635017 97.130135,33.257610 
z"/>
<path fill="#1A7013" opacity="1.000000" stroke="none" 
	d="
M87.730606,19.628633 
	C85.823395,19.658033 83.916183,19.687433 81.728760,19.511803 
	C81.448547,19.306772 81.460953,18.926077 81.559891,18.926737 
	C81.658821,18.927397 81.859299,18.880733 82.163162,18.637257 
	C82.636482,16.269358 82.805939,14.144933 83.294586,12.050084 
	C84.407455,12.388296 85.201134,12.696933 85.988663,13.352051 
	C86.218224,15.410997 86.453934,17.123463 86.827278,18.907454 
	C86.964912,18.978977 87.269341,19.038595 87.318390,19.237909 
	C87.367432,19.437223 87.730606,19.628633 87.730606,19.628633 
z"/>
<path fill="#1E5312" opacity="1.000000" stroke="none" 
	d="
M80.924225,26.664991 
	C79.813019,27.670595 78.775795,28.330797 77.382126,28.585018 
	C77.013908,26.785688 77.002121,25.392344 76.990326,23.998997 
	C77.436752,23.784668 77.883186,23.570339 78.739441,23.581333 
	C79.149277,23.806658 79.614410,23.978189 79.614410,23.978189 
	C79.614410,23.978189 80.105469,23.910088 80.105469,23.910088 
	C80.403046,24.713255 80.700623,25.516422 80.924225,26.664991 
z"/>
<path fill="#77AD72" opacity="1.000000" stroke="none" 
	d="
M87.424744,24.142181 
	C87.040955,24.222982 86.617821,24.140886 86.403473,24.118649 
	C87.540543,23.725243 88.891960,23.354076 90.633881,23.010715 
	C91.024384,23.038525 91.001427,23.476923 90.969116,23.693775 
	C89.894058,23.960878 88.851295,24.011129 87.424744,24.142181 
z"/>
<path fill="#3A8718" opacity="1.000000" stroke="none" 
	d="
M91.905525,19.731030 
	C91.905525,19.731030 91.495422,19.811329 91.295181,19.535017 
	C91.094933,19.258705 90.986694,18.823179 90.841530,18.638519 
	C90.472137,18.227539 90.219933,18.038549 89.943054,17.678186 
	C89.946358,17.469484 89.959831,17.052246 90.299011,17.036938 
	C91.090752,17.012608 91.543312,17.003584 91.996323,17.302963 
	C91.970627,18.020182 91.944481,18.428995 91.870071,19.060469 
	C91.821815,19.283127 91.905525,19.731030 91.905525,19.731030 
z"/>
<path fill="#61A759" opacity="1.000000" stroke="none" 
	d="
M90.986694,18.823181 
	C90.986694,18.823179 91.094933,19.258705 91.092789,19.483082 
	C90.240837,19.781689 89.391029,19.855921 88.135910,19.779392 
	C87.730606,19.628633 87.367432,19.437223 87.762680,19.220665 
	C88.448227,18.988108 88.738525,18.972109 89.356873,18.973642 
	C90.118851,18.935179 90.552773,18.879179 90.986694,18.823181 
z"/>
<path fill="#9BAB9E" opacity="1.000000" stroke="none" 
	d="
M79.290848,20.062868 
	C78.550987,20.089382 78.102554,20.035309 77.505760,19.685127 
	C77.663071,19.150156 77.968750,18.911297 78.562714,18.726952 
	C79.233223,18.867369 79.615440,18.953270 80.042870,19.229876 
	C80.088074,19.420580 80.160713,19.805765 80.160713,19.805765 
	C79.967903,19.864605 79.775093,19.923443 79.290848,20.062868 
z"/>
<path fill="#70A273" opacity="1.000000" stroke="none" 
	d="
M80.058952,23.705410 
	C80.105469,23.910088 79.614410,23.978189 79.614410,23.978189 
	C79.614410,23.978189 79.149277,23.806658 79.004303,23.605991 
	C79.029678,23.299980 79.200027,23.194633 79.670639,23.086143 
	C79.970894,23.083000 80.012436,23.500732 80.058952,23.705410 
z"/>
<path fill="#61A759" opacity="1.000000" stroke="none" 
	d="
M92.147102,19.930574 
	C91.905525,19.731030 91.821815,19.283127 92.063019,19.078588 
	C92.304222,18.874050 92.689331,18.845379 92.689331,18.845379 
	C92.725945,19.013517 92.762566,19.181658 92.873093,19.597668 
	C92.760895,19.940401 92.574783,20.035261 92.147102,19.930574 
z"/>
<path fill="#61A759" opacity="1.000000" stroke="none" 
	d="
M80.435150,19.827217 
	C80.160713,19.805765 80.088074,19.420580 80.407845,19.192438 
	C80.972061,18.951557 81.216507,18.938816 81.460953,18.926077 
	C81.460953,18.926077 81.448547,19.306772 81.322922,19.450031 
	C81.034737,19.678417 80.872162,19.763542 80.435150,19.827217 
z"/>
<path fill="#0C3718" opacity="1.000000" stroke="none" 
	d="
M20.631157,24.075445 
	C20.778749,24.986952 20.571106,25.825106 20.103987,26.868223 
	C18.591570,26.531479 17.338629,25.989773 16.085686,25.448067 
	C16.078644,24.966076 16.071602,24.484085 16.064560,24.002094 
	C17.468348,24.002094 18.872133,24.002094 20.631157,24.075445 
z"/>
<path fill="#106219" opacity="1.000000" stroke="none" 
	d="
M54.997574,6.248237 
	C60.690594,6.335325 66.380173,6.670335 72.608498,7.349178 
	C75.763817,8.796255 78.380379,9.899501 80.999344,11.377722 
	C80.998665,12.502801 80.995598,13.252904 80.641266,13.845879 
	C75.521652,12.479829 70.798172,11.009865 65.964836,10.178935 
	C63.753689,9.798802 61.326244,10.676839 58.673752,11.042707 
	C57.231350,11.721349 56.112095,12.341550 54.780411,12.753757 
	C53.043819,13.028526 51.519657,13.511288 50.045853,13.655714 
	C51.727486,11.208930 53.358765,9.100480 54.990044,6.992030 
	C54.990044,6.992030 54.994137,6.496158 54.997574,6.248237 
z"/>
<path fill="#0C541A" opacity="1.000000" stroke="none" 
	d="
M54.587734,6.994262 
	C53.358765,9.100480 51.727486,11.208930 49.792664,13.773333 
	C48.995396,14.489411 48.501671,14.749538 47.691353,15.012386 
	C46.921669,15.677656 46.468582,16.340208 46.012428,17.383766 
	C45.995651,18.526194 45.981941,19.287609 45.968231,20.049026 
	C44.906410,20.039698 43.844585,20.030369 42.391258,20.095901 
	C41.233212,20.107740 40.466671,20.044714 39.321693,19.906403 
	C38.417671,18.702374 37.892097,17.573629 36.956017,15.563272 
	C42.815720,12.649720 48.500572,9.823107 54.587734,6.994262 
z"/>
<path fill="#0F5B13" opacity="1.000000" stroke="none" 
	d="
M36.073135,31.118973 
	C36.054680,31.527773 36.036224,31.936575 35.778706,32.774277 
	C34.748726,33.469296 33.957806,33.735409 33.166885,34.001518 
	C33.116310,31.953554 33.065735,29.905590 33.434250,27.427250 
	C34.539295,26.989620 35.225250,26.982368 35.937759,27.389595 
	C36.000584,28.909040 36.036861,30.014008 36.073135,31.118973 
z"/>
<path fill="#106B10" opacity="1.000000" stroke="none" 
	d="
M33.028713,34.313217 
	C33.957806,33.735409 34.748726,33.469296 35.829376,33.077362 
	C36.409935,33.745609 36.700768,34.539680 36.735348,35.820007 
	C36.270248,36.533329 36.126377,36.795994 36.047489,37.094257 
	C36.047489,37.094257 36.030052,37.045589 36.054329,37.054516 
	C34.949219,37.124809 33.819832,37.186172 32.426811,37.135910 
	C32.405632,36.224491 32.648087,35.424702 33.028713,34.313217 
z"/>
<path fill="#0B4810" opacity="1.000000" stroke="none" 
	d="
M35.911209,26.975117 
	C35.225250,26.982368 34.539295,26.989620 33.510342,26.995035 
	C33.844784,25.994324 34.522217,24.995447 35.605511,24.353352 
	C35.977982,25.465128 35.944595,26.220121 35.911209,26.975117 
z"/>
<path fill="#286C3C" opacity="1.000000" stroke="none" 
	d="
M35.937759,27.389595 
	C35.944595,26.220121 35.977982,25.465128 36.001778,24.331997 
	C36.026695,23.625290 36.183964,23.373350 36.693241,23.196692 
	C36.873196,25.690897 36.823902,28.186457 36.423874,30.900494 
	C36.036861,30.014008 36.000584,28.909040 35.937759,27.389595 
z"/>
<path fill="#0B850F" opacity="1.000000" stroke="none" 
	d="
M54.992836,12.961751 
	C56.112095,12.341550 57.231350,11.721349 58.893707,11.287029 
	C60.657089,11.992264 61.877369,12.511618 63.239601,13.336432 
	C64.936371,13.759315 66.491196,13.876740 68.339706,13.883291 
	C70.882034,13.633664 73.072685,13.577525 72.981033,17.099422 
	C73.030487,17.585403 73.055725,17.779213 72.626945,17.980556 
	C69.281029,17.771008 66.339371,17.134825 63.513058,17.470327 
	C61.278454,17.735584 59.185547,19.194481 57.003960,20.324467 
	C56.978207,20.525637 56.918926,20.926903 56.918926,20.926903 
	C56.918926,20.926903 56.988140,21.000929 56.710533,21.035606 
	C56.345409,21.376310 56.257893,21.682337 56.170376,21.988365 
	C56.114918,22.155966 56.059460,22.323568 55.593201,22.796509 
	C53.184746,24.397144 51.187092,25.692438 49.189434,26.987732 
	C49.349762,25.366589 49.510090,23.745447 49.428474,21.628407 
	C52.016499,19.044592 55.788815,17.626331 54.992836,12.961751 
z"/>
<path fill="#165A16" opacity="1.000000" stroke="none" 
	d="
M70.876938,31.602621 
	C69.925652,31.869787 69.009132,31.861691 67.638733,31.889462 
	C67.184853,31.925331 67.039360,31.520144 66.885025,31.070438 
	C66.436943,30.433630 66.143211,30.246525 65.849472,30.059422 
	C64.564690,27.277138 63.279907,24.494854 62.422157,21.347008 
	C64.175560,21.322477 65.501938,21.663509 66.828316,22.004541 
	C67.663651,22.671642 68.498985,23.338741 69.775551,24.250866 
	C70.385582,24.712320 70.592003,24.883324 70.836060,25.008905 
	C70.877861,25.454874 70.919662,25.900845 70.694946,26.981144 
	C70.540070,28.303204 70.651711,28.990934 70.763351,29.678665 
	C70.812805,30.228230 70.862251,30.777796 70.876938,31.602621 
z"/>
<path fill="#106410" opacity="1.000000" stroke="none" 
	d="
M49.108528,27.346405 
	C51.187092,25.692438 53.184746,24.397144 55.509697,23.047806 
	C54.225349,27.239767 52.613705,31.485771 50.799835,36.264553 
	C49.218643,34.127834 47.894180,32.338039 46.539978,30.508060 
	C47.051746,29.931421 48.039684,28.818251 49.108528,27.346405 
z"/>
<path fill="#0C7416" opacity="1.000000" stroke="none" 
	d="
M54.780411,12.753757 
	C55.788815,17.626331 52.016499,19.044592 49.097466,21.453178 
	C48.067379,21.399769 47.126362,21.025686 46.076786,20.350315 
	C45.981941,19.287609 45.995651,18.526194 46.320633,17.325863 
	C47.090588,16.261190 47.549271,15.635428 48.007950,15.009666 
	C48.501671,14.749538 48.995396,14.489411 49.742306,14.111667 
	C51.519657,13.511288 53.043819,13.028526 54.780411,12.753757 
z"/>
<path fill="#117414" opacity="1.000000" stroke="none" 
	d="
M66.918121,21.617794 
	C65.501938,21.663509 64.175560,21.322477 62.499165,20.967724 
	C62.149143,20.954006 61.968494,21.033756 61.894264,20.732925 
	C61.218887,20.349617 60.617741,20.267139 60.016590,20.184660 
	C59.845055,20.136314 59.673515,20.087967 58.921822,20.031969 
	C57.904346,20.057312 57.467030,20.090305 57.029713,20.123299 
	C59.185547,19.194481 61.278454,17.735584 63.513058,17.470327 
	C66.339371,17.134825 69.281029,17.771008 72.946632,17.993805 
	C74.149010,18.000937 74.577690,18.002354 75.006371,18.003773 
	C72.340225,19.079533 69.674080,20.155291 66.918121,21.617794 
z"/>
<path fill="#FBFDFB" opacity="1.000000" stroke="none" 
	d="
M60.915241,29.968792 
	C61.162331,30.671503 61.409420,31.374212 61.656509,32.076923 
	C60.053036,31.594046 58.449562,31.111168 56.846088,30.628290 
	C56.935463,30.497015 57.002087,30.337402 57.120525,30.242325 
	C57.242382,30.144495 57.414764,30.109602 58.190521,30.022564 
	C59.515751,29.988235 60.215496,29.978514 60.915241,29.968792 
z"/>
<path fill="#155514" opacity="1.000000" stroke="none" 
	d="
M42.465981,26.970230 
	C42.084213,26.241623 42.040142,25.532461 42.019184,24.467941 
	C42.949890,24.534216 43.857487,24.955851 44.765079,25.377487 
	C44.111282,25.914885 43.457485,26.452282 42.465981,26.970230 
z"/>
<path fill="#245227" opacity="1.000000" stroke="none" 
	d="
M60.948330,29.656132 
	C60.215496,29.978514 59.515751,29.988235 58.466614,29.975887 
	C58.117226,29.953819 58.040882,29.532192 58.284939,29.230700 
	C58.624493,28.624374 58.719990,28.319542 58.815487,28.014709 
	C59.537464,28.457628 60.259441,28.900549 60.948330,29.656132 
z"/>
<path fill="#FBFDFB" opacity="1.000000" stroke="none" 
	d="
M59.144680,25.617971 
	C59.040222,25.341166 59.117626,25.040775 59.195023,24.740383 
	C59.238861,25.025051 59.282700,25.309719 59.144680,25.617971 
z"/>
<path fill="#FBFDFB" opacity="1.000000" stroke="none" 
	d="
M60.188953,20.370825 
	C60.617741,20.267139 61.218887,20.349617 61.797325,20.751644 
	C61.303513,20.899790 60.832413,20.728390 60.188953,20.370825 
z"/>
<path fill="#FBFDFB" opacity="1.000000" stroke="none" 
	d="
M57.003960,20.324467 
	C57.467030,20.090305 57.904346,20.057312 58.663113,20.099316 
	C58.487007,20.422873 57.989452,20.671431 57.205414,20.923447 
	C56.918926,20.926903 56.978207,20.525637 57.003960,20.324467 
z"/>
<path fill="#FBFDFB" opacity="1.000000" stroke="none" 
	d="
M58.640938,28.161371 
	C58.719990,28.319542 58.624493,28.624374 58.282448,29.016472 
	C58.113121,28.802645 58.256618,28.537409 58.640938,28.161371 
z"/>
<path fill="#FBFDFB" opacity="1.000000" stroke="none" 
	d="
M56.344143,21.845057 
	C56.257893,21.682337 56.345409,21.376310 56.685135,20.991940 
	C56.866936,21.213251 56.727123,21.475967 56.344143,21.845057 
z"/>
<path fill="#2B5D25" opacity="1.000000" stroke="none" 
	d="
M65.955246,30.309299 
	C66.143211,30.246525 66.436943,30.433630 66.849907,30.858065 
	C66.666428,30.916656 66.363716,30.737917 65.955246,30.309299 
z"/>
<path fill="#4A6341" opacity="1.000000" stroke="none" 
	d="
M76.635399,24.168943 
	C77.002121,25.392344 77.013908,26.785688 77.056824,28.596882 
	C77.087959,29.014727 76.657951,29.051920 76.442139,29.051666 
	C76.244377,27.480574 76.262421,25.909731 76.635399,24.168943 
z"/>
<path fill="#709A71" opacity="1.000000" stroke="none" 
	d="
M78.274429,18.672440 
	C77.968750,18.911297 77.663071,19.150156 77.174187,19.614765 
	C76.659065,19.470390 76.327141,19.100264 75.979225,18.225006 
	C75.963226,17.719877 75.959358,17.273497 76.190231,17.274996 
	C76.421104,17.276495 76.866722,17.396822 77.012321,17.588291 
	C77.530090,18.077322 77.902260,18.374880 78.274429,18.672440 
z"/>
<path fill="#819480" opacity="1.000000" stroke="none" 
	d="
M75.959358,17.273495 
	C75.959358,17.273497 75.963226,17.719877 75.938675,17.941963 
	C75.914116,18.164049 75.468391,18.037828 75.237381,18.020800 
	C74.577690,18.002354 74.149010,18.000937 73.400642,17.986273 
	C73.055725,17.779213 73.030487,17.585403 73.364426,17.049191 
	C74.468857,16.895691 75.214111,17.084593 75.959358,17.273495 
z"/>
<path fill="#2B5D25" opacity="1.000000" stroke="none" 
	d="
M70.873138,29.355309 
	C70.651711,28.990934 70.540070,28.303204 70.630333,27.312326 
	C70.882477,27.683437 70.932701,28.357697 70.873138,29.355309 
z"/>
<path fill="#2B5D25" opacity="1.000000" stroke="none" 
	d="
M70.889191,24.737812 
	C70.592003,24.883324 70.385582,24.712320 70.107819,24.325407 
	C70.313347,24.258854 70.627831,24.362787 70.889191,24.737812 
z"/>
<path fill="#4A6341" opacity="1.000000" stroke="none" 
	d="
M76.169632,32.227673 
	C76.519386,32.124355 76.724770,32.348637 76.884796,32.874199 
	C76.646812,32.896622 76.375420,32.689884 76.169632,32.227673 
z"/>
<path fill="#0B730B" opacity="1.000000" stroke="none" 
	d="
M36.299210,37.013165 
	C36.126377,36.795994 36.270248,36.533329 36.655148,36.164040 
	C36.737774,36.325237 36.644352,36.628654 36.299210,37.013165 
z"/>
<path fill="#128712" opacity="1.000000" stroke="none" 
	d="
M134.625549,8.004856 
	C136.683350,8.670750 138.366516,9.333508 140.502411,10.363382 
	C141.003433,11.474689 141.051697,12.218881 141.099976,12.963072 
	C139.980881,13.003365 138.861771,13.043657 137.296265,12.835537 
	C136.540878,12.444103 136.231888,12.301084 135.587830,12.092524 
	C134.166855,11.752335 133.080963,11.477689 131.747314,11.104050 
	C131.331863,10.945919 131.164139,10.886781 131.139999,10.559626 
	C131.523422,9.528523 131.763245,8.765437 132.003052,8.002350 
	C132.752335,8.002139 133.501617,8.001929 134.625549,8.004856 
z"/>
<path fill="#26933E" opacity="1.000000" stroke="none" 
	d="
M136.061035,15.711426 
	C134.649063,16.347841 133.227463,16.668530 131.404343,16.659544 
	C130.972534,15.893835 130.942230,15.457800 130.922989,14.693417 
	C130.912445,13.927840 130.890839,13.490613 130.906647,12.851981 
	C130.944046,12.650578 130.984283,12.242862 131.236099,12.171173 
	C131.657730,12.059105 131.827530,12.018724 132.244568,12.236107 
	C133.661636,12.699107 134.831497,12.904343 136.002411,13.365906 
	C136.018280,13.792476 136.033081,13.962718 136.047882,14.132961 
	C136.049072,14.553874 136.050247,14.974787 136.061035,15.711426 
z"/>
<path fill="#939B94" opacity="1.000000" stroke="none" 
	d="
M141.313538,12.956404 
	C141.051697,12.218881 141.003433,11.474689 140.898621,10.361494 
	C141.228104,10.744464 141.614090,11.496438 141.974838,12.566957 
	C141.949585,12.885500 141.527100,12.949736 141.313538,12.956404 
z"/>
<path fill="#4C9354" opacity="1.000000" stroke="none" 
	d="
M136.273514,13.989766 
	C136.033081,13.962718 136.018280,13.792476 135.984802,13.127382 
	C135.966141,12.632531 135.922913,12.158064 135.922913,12.158064 
	C136.231888,12.301084 136.540878,12.444103 137.005157,12.799922 
	C136.940002,13.290672 136.719574,13.568622 136.273514,13.989766 
z"/>
<path fill="#177F10" opacity="1.000000" stroke="none" 
	d="
M102.626205,7.998300 
	C101.507072,9.855474 100.018486,11.714343 98.077972,13.887045 
	C97.364082,14.365094 97.191566,14.596082 97.108498,14.893841 
	C97.108498,14.893841 97.066589,14.936815 96.785088,14.915262 
	C96.328659,14.896932 96.153732,14.900154 95.848366,14.707001 
	C95.501762,14.272800 95.244164,14.095003 94.945114,13.977235 
	C95.526848,12.845350 96.108574,11.713466 96.842941,10.296480 
	C98.749298,9.340918 100.503029,8.670456 102.626205,7.998300 
z"/>
<path fill="#6A9461" opacity="1.000000" stroke="none" 
	d="
M116.010017,7.981452 
	C114.342834,7.901154 112.675659,7.820855 110.384453,7.511133 
	C109.442978,6.826975 109.125519,6.372239 108.808060,5.917500 
	C109.292358,5.890891 109.776642,5.864283 110.621811,5.792204 
	C112.063789,5.930594 113.144905,6.114456 114.631592,6.400245 
	C115.231567,6.715204 115.457993,6.885757 115.885101,7.307270 
	C116.053764,7.600707 116.010017,7.981452 116.010017,7.981452 
z"/>
<path fill="#399231" opacity="1.000000" stroke="none" 
	d="
M108.601311,5.917269 
	C109.125519,6.372239 109.442978,6.826975 109.968750,7.472992 
	C109.728081,7.783618 109.279091,7.902964 108.471588,7.664946 
	C108.069374,7.052655 108.025673,6.797727 107.981964,6.542799 
	C107.981964,6.542799 107.964355,6.239305 107.972900,6.087043 
	C107.981438,5.934780 108.394562,5.917036 108.601311,5.917269 
z"/>
<path fill="#185719" opacity="1.000000" stroke="none" 
	d="
M80.996948,11.002747 
	C78.380379,9.899501 75.763817,8.796255 73.070755,7.350210 
	C75.400063,6.339022 77.805847,5.670635 80.597961,4.999743 
	C82.131447,5.563271 83.278618,6.129303 84.669281,7.173232 
	C83.942558,8.765743 82.972351,9.880357 81.750816,10.996118 
	C81.331978,10.999092 81.164467,11.000919 80.996948,11.002747 
z"/>
<path fill="#225F17" opacity="1.000000" stroke="none" 
	d="
M82.002136,10.994970 
	C82.972351,9.880357 83.942558,8.765743 84.957611,7.325832 
	C86.375458,7.000154 87.748474,6.999774 89.530838,6.998272 
	C90.147827,7.257106 90.355476,7.517063 90.775558,7.910671 
	C90.481514,9.549296 89.975037,11.054271 88.975464,12.782837 
	C88.482353,13.006429 87.990318,13.001869 87.657829,12.997780 
	C86.881828,12.997650 86.438324,13.001610 85.994812,13.005569 
	C85.201134,12.696933 84.407455,12.388296 83.092239,11.920395 
	C82.316002,11.554119 82.126480,11.298732 82.002136,10.994970 
z"/>
<path fill="#247D14" opacity="1.000000" stroke="none" 
	d="
M94.536903,13.981220 
	C95.244164,14.095003 95.501762,14.272800 95.828903,14.934347 
	C95.865257,15.648311 95.821953,15.943143 95.809952,16.242569 
	C95.398026,16.394991 94.986092,16.547415 93.940826,16.820602 
	C92.870277,16.959099 92.433083,16.976830 91.995880,16.994560 
	C91.543312,17.003584 91.090752,17.012608 90.304115,16.656273 
	C89.989807,15.533645 90.009567,14.776374 90.029327,14.019104 
	C91.395782,14.007805 92.762238,13.996506 94.536903,13.981220 
z"/>
<path fill="#49822C" opacity="1.000000" stroke="none" 
	d="
M89.814957,13.895971 
	C90.009567,14.776374 89.989807,15.533645 89.964935,16.671581 
	C89.959831,17.052246 89.946358,17.469484 89.749222,17.818890 
	C89.308388,18.384903 89.133965,18.647509 89.028816,18.956108 
	C88.738525,18.972109 88.448227,18.988108 87.713638,19.021351 
	C87.269341,19.038595 86.964912,18.978977 87.085602,18.622553 
	C87.467636,16.511375 87.728981,14.756623 87.990318,13.001869 
	C87.990318,13.001869 88.482353,13.006429 88.728027,13.013922 
	C89.116234,13.327308 89.325195,13.577783 89.814957,13.895971 
z"/>
<path fill="#167D12" opacity="1.000000" stroke="none" 
	d="
M131.581451,8.001054 
	C131.763245,8.765437 131.523422,9.528523 130.746979,10.597116 
	C129.726364,10.727218 129.242340,10.551812 128.689697,10.290274 
	C128.621048,10.204142 128.211334,9.947281 127.808044,9.957970 
	C126.604439,9.978971 125.804115,9.989282 124.816971,9.735043 
	C123.798454,9.305460 122.966766,9.140428 121.933746,8.835972 
	C121.441872,8.936236 121.151321,9.175925 120.718140,9.513784 
	C120.575500,9.611955 120.484451,9.946087 120.484192,9.969905 
	C120.483925,9.993723 120.523766,9.967815 120.510132,9.842787 
	C120.496490,9.717758 120.436096,9.473574 120.420654,9.044785 
	C120.279861,8.358877 120.154526,8.101758 120.029182,7.844639 
	C121.429718,7.231954 122.830246,6.619270 124.613441,6.008286 
	C127.050682,6.673242 129.105270,7.336500 131.581451,8.001054 
z"/>
<path fill="#859C78" opacity="1.000000" stroke="none" 
	d="
M119.705322,7.880602 
	C120.154526,8.101758 120.279861,8.358877 120.009758,8.884649 
	C119.045799,9.127544 118.477280,9.101788 117.629120,9.032623 
	C116.974670,8.952424 116.599869,8.915633 116.225060,8.878842 
	C116.225060,8.878842 116.131271,8.426906 116.070648,8.204179 
	C116.010017,7.981452 116.053764,7.600707 116.075623,7.411857 
	C116.264984,7.169466 116.432495,7.115925 116.841164,6.953486 
	C117.848709,7.201914 118.615089,7.559240 119.705322,7.880602 
z"/>
<path fill="#1C7115" opacity="1.000000" stroke="none" 
	d="
M115.878967,9.041240 
	C116.599869,8.915633 116.974670,8.952424 117.763153,9.237293 
	C118.370361,9.753262 118.605331,9.977775 118.914200,10.510906 
	C118.975845,11.568168 119.005043,12.273435 119.034241,12.978703 
	C116.062111,14.403535 113.089973,15.828367 110.056046,17.608765 
	C107.526009,18.721424 105.064186,19.500427 102.586914,20.226753 
	C101.267586,20.613573 99.921532,20.909260 98.283852,21.106232 
	C102.407486,14.921150 108.547813,11.432120 115.878967,9.041240 
z"/>
<path fill="#418829" opacity="1.000000" stroke="none" 
	d="
M119.322754,12.987564 
	C119.005043,12.273435 118.975845,11.568168 119.323593,10.448709 
	C119.974937,10.012283 120.249352,9.990049 120.523766,9.967815 
	C120.523766,9.967815 120.483925,9.993723 120.648659,10.116457 
	C120.813393,10.239190 121.054161,10.607281 121.162987,10.890115 
	C121.812881,11.760269 122.353943,12.347589 122.669495,12.948301 
	C122.443970,12.961693 121.994301,13.005885 121.687073,13.012068 
	C121.175339,13.030272 120.970825,13.042292 120.766319,13.054312 
	C120.381302,13.035017 119.996277,13.015721 119.322754,12.987564 
z"/>
<path fill="#5C833B" opacity="1.000000" stroke="none" 
	d="
M123.027046,17.005856 
	C123.027046,17.005856 122.534637,16.959692 122.288994,16.934036 
	C121.999741,16.194740 121.956131,15.481101 121.946281,14.392368 
	C121.980042,14.017276 122.020256,13.987330 122.268745,14.210867 
	C122.687172,15.291553 122.857109,16.148705 123.027046,17.005856 
z"/>
<path fill="#2F6D21" opacity="1.000000" stroke="none" 
	d="
M120.471848,17.515118 
	C120.454292,17.479553 120.489395,17.550680 120.471848,17.515118 
z"/>
<path fill="#5C833B" opacity="1.000000" stroke="none" 
	d="
M120.913239,13.275260 
	C120.970825,13.042292 121.175339,13.030272 121.704147,13.257113 
	C122.028442,13.495975 122.020256,13.987330 122.020256,13.987330 
	C122.020256,13.987330 121.980042,14.017276 121.959625,14.033852 
	C121.646187,13.865688 121.353172,13.680948 120.913239,13.275260 
z"/>
<path fill="#276A18" opacity="1.000000" stroke="none" 
	d="
M122.268745,14.210867 
	C122.020256,13.987330 122.028442,13.495975 122.011368,13.250931 
	C121.994301,13.005885 122.443970,12.961693 123.082184,12.967527 
	C124.809761,12.991623 125.899117,13.009885 127.075821,13.369022 
	C128.412766,14.147187 129.662338,14.584476 130.911926,15.021766 
	C130.942230,15.457800 130.972534,15.893835 131.022034,16.656944 
	C129.808960,17.166288 128.576706,17.348557 127.166634,17.757256 
	C126.543785,17.979408 126.098740,17.975130 125.225479,17.774364 
	C124.638000,17.337999 124.436203,17.141891 123.896576,16.968132 
	C123.404602,16.963064 123.207916,16.979420 123.011223,16.995777 
	C123.011223,16.995777 123.004593,17.004208 123.015823,17.005032 
	C122.857109,16.148705 122.687172,15.291553 122.268745,14.210867 
z"/>
<path fill="#225B17" opacity="1.000000" stroke="none" 
	d="
M124.191856,16.989555 
	C124.436203,17.141891 124.638000,17.337999 124.891670,17.767014 
	C124.986084,17.956146 124.524986,17.987778 124.294907,18.000313 
	C124.064819,18.012850 124.033936,18.007671 124.064682,17.750473 
	C124.127579,17.325369 124.159714,17.157461 124.191856,16.989555 
z"/>
<path fill="#4F6F2D" opacity="1.000000" stroke="none" 
	d="
M123.896576,16.968132 
	C124.159714,17.157461 124.127579,17.325369 124.062378,17.747620 
	C123.696274,17.909378 123.426598,17.724419 123.115761,17.221430 
	C123.207916,16.979420 123.404602,16.963064 123.896576,16.968132 
z"/>
<path fill="#629960" opacity="1.000000" stroke="none" 
	d="
M95.848473,16.653965 
	C95.821953,15.943143 95.865257,15.648311 95.959343,15.130724 
	C96.153732,14.900154 96.328659,14.896932 96.762711,14.935263 
	C96.938194,15.904774 96.854561,16.832731 96.541412,17.987232 
	C96.311913,18.213774 96.296921,18.246855 96.296921,18.246855 
	C96.296921,18.246855 96.088577,18.070084 95.983673,17.980896 
	C95.881508,17.616261 95.884247,17.340811 95.848473,16.653965 
z"/>
<path fill="#809883" opacity="1.000000" stroke="none" 
	d="
M96.295410,18.269890 
	C96.296921,18.246855 96.311913,18.213774 96.318832,18.206305 
	C96.325752,18.198835 96.400314,18.311522 96.339417,18.337566 
	C96.278511,18.363609 96.293907,18.292925 96.295410,18.269890 
z"/>
<path fill="#6A9461" opacity="1.000000" stroke="none" 
	d="
M107.774918,6.746033 
	C108.025673,6.797727 108.069374,7.052655 108.125031,7.695769 
	C107.947281,7.705727 107.757568,7.327497 107.774918,6.746033 
z"/>
<path fill="#247D14" opacity="1.000000" stroke="none" 
	d="
M97.306084,14.801414 
	C97.191566,14.596082 97.364082,14.365094 97.828407,14.109649 
	C97.916382,14.295436 97.740677,14.525625 97.306084,14.801414 
z"/>
<path fill="#59912F" opacity="1.000000" stroke="none" 
	d="
M91.996323,17.302963 
	C92.433083,16.976830 92.870277,16.959099 93.635445,16.944429 
	C93.668533,17.435535 93.373657,17.923582 92.884064,18.628502 
	C92.689331,18.845379 92.304222,18.874050 92.111282,18.855930 
	C91.944481,18.428995 91.970627,18.020182 91.996323,17.302963 
z"/>
<path fill="#188415" opacity="1.000000" stroke="none" 
	d="
M78.562714,18.726954 
	C77.902260,18.374880 77.530090,18.077322 77.075241,17.266251 
	C78.324104,16.502457 79.655647,16.252174 81.224129,16.216757 
	C81.593811,17.247993 81.726555,18.064363 81.859299,18.880733 
	C81.859299,18.880733 81.658821,18.927397 81.559891,18.926737 
	C81.216507,18.938816 80.972061,18.951557 80.362640,19.001734 
	C79.615440,18.953270 79.233223,18.867369 78.562714,18.726954 
z"/>
<path fill="#27771A" opacity="1.000000" stroke="none" 
	d="
M87.657829,12.997780 
	C87.728981,14.756623 87.467636,16.511375 86.947968,18.551029 
	C86.453934,17.123463 86.218224,15.410997 85.988663,13.352050 
	C86.438324,13.001610 86.881828,12.997650 87.657829,12.997780 
z"/>
<path fill="#238027" opacity="1.000000" stroke="none" 
	d="
M82.163162,18.637257 
	C81.726555,18.064363 81.593811,17.247993 81.227974,15.883577 
	C80.994095,14.891356 80.993317,14.447182 80.992538,14.003006 
	C80.995598,13.252904 80.998665,12.502801 80.999344,11.377723 
	C81.164467,11.000919 81.331978,10.999092 81.750816,10.996117 
	C82.126480,11.298732 82.316002,11.554119 82.773048,11.890820 
	C82.805939,14.144933 82.636482,16.269358 82.163162,18.637257 
z"/>
<path fill="#247D14" opacity="1.000000" stroke="none" 
	d="
M89.356873,18.973642 
	C89.133965,18.647509 89.308388,18.384903 89.745911,18.027592 
	C90.219933,18.038549 90.472137,18.227539 90.841530,18.638519 
	C90.552773,18.879179 90.118851,18.935179 89.356873,18.973642 
z"/>
<path fill="#0D7812" opacity="1.000000" stroke="none" 
	d="
M80.641273,13.845879 
	C80.993317,14.447182 80.994095,14.891356 80.991035,15.668711 
	C79.655647,16.252174 78.324104,16.502457 76.929642,17.074781 
	C76.866722,17.396822 76.421104,17.276495 76.190231,17.274994 
	C75.214111,17.084593 74.468857,16.895691 73.340218,16.757023 
	C73.072685,13.577525 70.882034,13.633664 67.977203,13.829822 
	C65.913231,13.601806 64.505440,13.316389 63.097652,13.030972 
	C61.877369,12.511618 60.657089,11.992264 59.216850,11.228588 
	C61.326244,10.676839 63.753689,9.798802 65.964836,10.178935 
	C70.798172,11.009865 75.521652,12.479829 80.641273,13.845879 
z"/>
<path fill="#106219" opacity="1.000000" stroke="none" 
	d="
M47.691353,15.012386 
	C47.549271,15.635428 47.090588,16.261190 46.323700,16.944855 
	C46.468582,16.340208 46.921669,15.677656 47.691353,15.012386 
z"/>
<path fill="#709474" opacity="1.000000" stroke="none" 
	d="
M63.239601,13.336432 
	C64.505440,13.316389 65.913231,13.601806 67.683517,13.940693 
	C66.491196,13.876740 64.936371,13.759315 63.239601,13.336432 
z"/>
<path fill="#7A9777" opacity="1.000000" stroke="none" 
	d="
M135.587830,12.092523 
	C135.922913,12.158064 135.966141,12.632531 135.983734,12.871056 
	C134.831497,12.904343 133.661636,12.699107 132.244019,12.042397 
	C131.996231,11.590923 131.995056,11.203042 131.995056,11.203043 
	C133.080963,11.477689 134.166855,11.752335 135.587830,12.092523 
z"/>
<path fill="#7C9B7B" opacity="1.000000" stroke="none" 
	d="
M131.747314,11.104050 
	C131.995056,11.203042 131.996231,11.590923 131.996796,11.784634 
	C131.827530,12.018724 131.657730,12.059105 130.905685,12.102004 
	C129.876160,12.110291 129.428848,12.116058 128.950897,12.084112 
	C128.920258,12.046397 128.831772,12.086585 128.802368,11.659514 
	C128.768082,10.947098 128.763199,10.661751 128.758331,10.376406 
	C129.242340,10.551812 129.726364,10.727218 130.603394,10.865132 
	C131.164139,10.886781 131.331863,10.945919 131.747314,11.104050 
z"/>
<path fill="#177310" opacity="1.000000" stroke="none" 
	d="
M130.922989,14.693417 
	C129.662338,14.584476 128.412766,14.147187 127.245911,13.155903 
	C127.829681,12.430135 128.330734,12.258361 128.831772,12.086586 
	C128.831772,12.086585 128.920258,12.046397 129.138062,12.281792 
	C129.860321,12.695920 130.364777,12.874653 130.869247,13.053385 
	C130.890839,13.490613 130.912445,13.927840 130.922989,14.693417 
z"/>
<path fill="#218317" opacity="1.000000" stroke="none" 
	d="
M130.906647,12.851982 
	C130.364777,12.874653 129.860321,12.695920 129.168701,12.319507 
	C129.428848,12.116058 129.876160,12.110291 130.653870,12.173693 
	C130.984283,12.242862 130.944046,12.650578 130.906647,12.851982 
z"/>
<path fill="#218317" opacity="1.000000" stroke="none" 
	d="
M128.802368,11.659515 
	C128.330734,12.258361 127.829681,12.430135 127.158554,12.815027 
	C125.899117,13.009885 124.809761,12.991623 123.307709,12.954136 
	C122.353943,12.347589 121.812881,11.760269 121.562874,10.946463 
	C122.923660,10.748881 123.993378,10.777785 125.416779,10.870154 
	C126.584084,10.604839 127.397713,10.276060 128.211334,9.947281 
	C128.211334,9.947281 128.621048,10.204142 128.689697,10.290274 
	C128.763199,10.661751 128.768082,10.947098 128.802368,11.659515 
z"/>
<path fill="#5F915C" opacity="1.000000" stroke="none" 
	d="
M125.063103,10.806689 
	C123.993378,10.777785 122.923660,10.748881 121.454048,10.663630 
	C121.054161,10.607281 120.813393,10.239190 120.648926,10.092638 
	C120.484451,9.946087 120.575500,9.611955 121.022736,9.363571 
	C121.691666,9.068589 121.913368,9.021993 122.135078,8.975395 
	C122.966766,9.140428 123.798454,9.305460 124.832153,9.936783 
	C125.034164,10.403072 125.063103,10.806689 125.063103,10.806689 
z"/>
<path fill="#7C8E71" opacity="1.000000" stroke="none" 
	d="
M125.416779,10.870154 
	C125.063103,10.806689 125.034164,10.403072 125.018982,10.201332 
	C125.804115,9.989282 126.604439,9.978971 127.808044,9.957970 
	C127.397713,10.276060 126.584084,10.604839 125.416779,10.870154 
z"/>
<path fill="#5A9653" opacity="1.000000" stroke="none" 
	d="
M120.510132,9.842787 
	C120.249352,9.990049 119.974937,10.012283 119.291138,10.096716 
	C118.605331,9.977775 118.370361,9.753262 118.042801,9.280703 
	C118.477280,9.101788 119.045799,9.127544 120.025208,9.313437 
	C120.436096,9.473574 120.496490,9.717758 120.510132,9.842787 
z"/>
<path fill="#859C78" opacity="1.000000" stroke="none" 
	d="
M121.933746,8.835972 
	C121.913368,9.021993 121.691666,9.068589 121.165375,9.265400 
	C121.151321,9.175925 121.441872,8.936236 121.933746,8.835972 
z"/>
</svg>